<?xml version="1.0" encoding="UTF-8" standalone="no"?>
<!DOCTYPE svg PUBLIC "-//W3C//DTD SVG 1.1//EN"
 "http://www.w3.org/Graphics/SVG/1.1/DTD/svg11.dtd">
<!-- Generated by graphviz version 2.43.0 (0)
 -->
<!-- Title: G Pages: 1 -->
<svg width="763pt" height="66pt"
 viewBox="0.00 0.00 763.20 66.20" xmlns="http://www.w3.org/2000/svg" xmlns:xlink="http://www.w3.org/1999/xlink">
<g id="graph0" class="graph" transform="scale(1 1) rotate(0) translate(21.6 44.6)">
<title>G</title>
<polygon fill="#111111" stroke="transparent" points="-21.6,21.6 -21.6,-44.6 741.6,-44.6 741.6,21.6 -21.6,21.6"/>
<!-- database/models/group.model.js -->
<g id="node1" class="node">
<title>database/models/group.model.js</title>
<path fill="none" stroke="#ff6c60" d="M205.33,-23C205.33,-23 7.67,-23 7.67,-23 3.83,-23 0,-19.17 0,-15.33 0,-15.33 0,-7.67 0,-7.67 0,-3.83 3.83,0 7.67,0 7.67,0 205.33,0 205.33,0 209.17,0 213,-3.83 213,-7.67 213,-7.67 213,-15.33 213,-15.33 213,-19.17 209.17,-23 205.33,-23"/>
<text text-anchor="middle" x="106.5" y="-7.8" font-family="Arial" font-size="14.00" fill="#ff6c60">database/models/group.model.js</text>
</g>
<!-- database/models/user.model.js -->
<g id="node2" class="node">
<title>database/models/user.model.js</title>
<path fill="none" stroke="#ff6c60" d="M446.33,-23C446.33,-23 256.67,-23 256.67,-23 252.83,-23 249,-19.17 249,-15.33 249,-15.33 249,-7.67 249,-7.67 249,-3.83 252.83,0 256.67,0 256.67,0 446.33,0 446.33,0 450.17,0 454,-3.83 454,-7.67 454,-7.67 454,-15.33 454,-15.33 454,-19.17 450.17,-23 446.33,-23"/>
<text text-anchor="middle" x="351.5" y="-7.8" font-family="Arial" font-size="14.00" fill="#ff6c60">database/models/user.model.js</text>
</g>
<!-- database/models/group.model.js&#45;&gt;database/models/user.model.js -->
<g id="edge1" class="edge">
<title>database/models/group.model.js&#45;&gt;database/models/user.model.js</title>
<path fill="none" stroke="#757575" d="M213.02,-4.8C221.58,-4.75 230.25,-4.74 238.86,-4.77"/>
<polygon fill="#757575" stroke="#757575" points="238.89,-8.27 248.92,-4.83 238.94,-1.27 238.89,-8.27"/>
</g>
<!-- database/models/user.model.js&#45;&gt;database/models/group.model.js -->
<g id="edge3" class="edge">
<title>database/models/user.model.js&#45;&gt;database/models/group.model.js</title>
<path fill="none" stroke="#757575" d="M248.92,-18.17C240.39,-18.24 231.73,-18.26 223.11,-18.24"/>
<polygon fill="#757575" stroke="#757575" points="223.04,-14.74 213.02,-18.2 223.01,-21.74 223.04,-14.74"/>
</g>
<!-- database/models/keystore.model.js -->
<g id="node3" class="node">
<title>database/models/keystore.model.js</title>
<path fill="none" stroke="#ff6c60" d="M712.33,-23C712.33,-23 497.67,-23 497.67,-23 493.83,-23 490,-19.17 490,-15.33 490,-15.33 490,-7.67 490,-7.67 490,-3.83 493.83,0 497.67,0 497.67,0 712.33,0 712.33,0 716.17,0 720,-3.83 720,-7.67 720,-7.67 720,-15.33 720,-15.33 720,-19.17 716.17,-23 712.33,-23"/>
<text text-anchor="middle" x="605" y="-7.8" font-family="Arial" font-size="14.00" fill="#ff6c60">database/models/keystore.model.js</text>
</g>
<!-- database/models/user.model.js&#45;&gt;database/models/keystore.model.js -->
<g id="edge4" class="edge">
<title>database/models/user.model.js&#45;&gt;database/models/keystore.model.js</title>
<path fill="none" stroke="#757575" d="M454.07,-4.86C462.5,-4.78 471.07,-4.75 479.64,-4.75"/>
<polygon fill="#757575" stroke="#757575" points="479.68,-8.25 489.69,-4.77 479.7,-1.25 479.68,-8.25"/>
</g>
<!-- database/models/keystore.model.js&#45;&gt;database/models/user.model.js -->
<g id="edge2" class="edge">
<title>database/models/keystore.model.js&#45;&gt;database/models/user.model.js</title>
<path fill="none" stroke="#757575" d="M489.69,-18.23C481.24,-18.26 472.73,-18.26 464.3,-18.21"/>
<polygon fill="#757575" stroke="#757575" points="464.1,-14.71 454.07,-18.14 464.04,-21.71 464.1,-14.71"/>
</g>
</g>
</svg>
