<?xml version="1.0" encoding="UTF-8" standalone="no"?>
<!DOCTYPE svg PUBLIC "-//W3C//DTD SVG 1.1//EN"
 "http://www.w3.org/Graphics/SVG/1.1/DTD/svg11.dtd">
<!-- Generated by graphviz version 2.43.0 (0)
 -->
<!-- Title: G Pages: 1 -->
<svg width="1076pt" height="184pt"
 viewBox="0.00 0.00 1076.20 184.20" xmlns="http://www.w3.org/2000/svg" xmlns:xlink="http://www.w3.org/1999/xlink">
<g id="graph0" class="graph" transform="scale(1 1) rotate(0) translate(21.6 162.6)">
<title>G</title>
<polygon fill="#111111" stroke="transparent" points="-21.6,21.6 -21.6,-162.6 1054.6,-162.6 1054.6,21.6 -21.6,21.6"/>
<!-- core/JWT.core.js -->
<g id="node1" class="node">
<title>core/JWT.core.js</title>
<path fill="none" stroke="#ff6c60" d="M211.33,-141C211.33,-141 109.67,-141 109.67,-141 105.83,-141 102,-137.17 102,-133.33 102,-133.33 102,-125.67 102,-125.67 102,-121.83 105.83,-118 109.67,-118 109.67,-118 211.33,-118 211.33,-118 215.17,-118 219,-121.83 219,-125.67 219,-125.67 219,-133.33 219,-133.33 219,-137.17 215.17,-141 211.33,-141"/>
<text text-anchor="middle" x="160.5" y="-125.8" font-family="Arial" font-size="14.00" fill="#ff6c60">core/JWT.core.js</text>
</g>
<!-- core/index.js -->
<g id="node2" class="node">
<title>core/index.js</title>
<path fill="none" stroke="#ff6c60" d="M450.33,-141C450.33,-141 373.67,-141 373.67,-141 369.83,-141 366,-137.17 366,-133.33 366,-133.33 366,-125.67 366,-125.67 366,-121.83 369.83,-118 373.67,-118 373.67,-118 450.33,-118 450.33,-118 454.17,-118 458,-121.83 458,-125.67 458,-125.67 458,-133.33 458,-133.33 458,-137.17 454.17,-141 450.33,-141"/>
<text text-anchor="middle" x="412" y="-125.8" font-family="Arial" font-size="14.00" fill="#ff6c60">core/index.js</text>
</g>
<!-- core/JWT.core.js&#45;&gt;core/index.js -->
<g id="edge1" class="edge">
<title>core/JWT.core.js&#45;&gt;core/index.js</title>
<path fill="none" stroke="#757575" d="M219.05,-123.71C260.09,-122.41 314.96,-122.43 355.53,-123.78"/>
<polygon fill="#757575" stroke="#757575" points="355.65,-127.28 365.78,-124.16 355.91,-120.29 355.65,-127.28"/>
</g>
<!-- core/index.js&#45;&gt;core/JWT.core.js -->
<g id="edge3" class="edge">
<title>core/index.js&#45;&gt;core/JWT.core.js</title>
<path fill="none" stroke="#757575" d="M365.78,-134.84C327.68,-136.43 272.61,-136.67 229.24,-135.58"/>
<polygon fill="#757575" stroke="#757575" points="229.15,-132.08 219.05,-135.29 228.95,-139.07 229.15,-132.08"/>
</g>
<!-- core/api&#45;error.core.js -->
<g id="node3" class="node">
<title>core/api&#45;error.core.js</title>
<path fill="none" stroke="#ff6c60" d="M636.33,-141C636.33,-141 510.67,-141 510.67,-141 506.83,-141 503,-137.17 503,-133.33 503,-133.33 503,-125.67 503,-125.67 503,-121.83 506.83,-118 510.67,-118 510.67,-118 636.33,-118 636.33,-118 640.17,-118 644,-121.83 644,-125.67 644,-125.67 644,-133.33 644,-133.33 644,-137.17 640.17,-141 636.33,-141"/>
<text text-anchor="middle" x="573.5" y="-125.8" font-family="Arial" font-size="14.00" fill="#ff6c60">core/api&#45;error.core.js</text>
</g>
<!-- core/index.js&#45;&gt;core/api&#45;error.core.js -->
<g id="edge4" class="edge">
<title>core/index.js&#45;&gt;core/api&#45;error.core.js</title>
<path fill="none" stroke="#757575" d="M458.28,-123.34C469.04,-122.95 480.83,-122.75 492.62,-122.75"/>
<polygon fill="#757575" stroke="#757575" points="492.95,-126.25 502.97,-122.8 492.98,-119.25 492.95,-126.25"/>
</g>
<!-- core/api&#45;error.core.js&#45;&gt;core/index.js -->
<g id="edge2" class="edge">
<title>core/api&#45;error.core.js&#45;&gt;core/index.js</title>
<path fill="none" stroke="#757575" d="M502.97,-136.2C491.37,-136.31 479.49,-136.23 468.31,-135.96"/>
<polygon fill="#757575" stroke="#757575" points="468.38,-132.46 458.28,-135.66 468.17,-139.46 468.38,-132.46"/>
</g>
<!-- database/index.js -->
<g id="node4" class="node">
<title>database/index.js</title>
<path fill="none" stroke="#ff6c60" d="M794.33,-61C794.33,-61 687.67,-61 687.67,-61 683.83,-61 680,-57.17 680,-53.33 680,-53.33 680,-45.67 680,-45.67 680,-41.83 683.83,-38 687.67,-38 687.67,-38 794.33,-38 794.33,-38 798.17,-38 802,-41.83 802,-45.67 802,-45.67 802,-53.33 802,-53.33 802,-57.17 798.17,-61 794.33,-61"/>
<text text-anchor="middle" x="741" y="-45.8" font-family="Arial" font-size="14.00" fill="#ff6c60">database/index.js</text>
</g>
<!-- database/repositories/index.js -->
<g id="node5" class="node">
<title>database/repositories/index.js</title>
<path fill="none" stroke="#ff6c60" d="M1025.33,-81C1025.33,-81 845.67,-81 845.67,-81 841.83,-81 838,-77.17 838,-73.33 838,-73.33 838,-65.67 838,-65.67 838,-61.83 841.83,-58 845.67,-58 845.67,-58 1025.33,-58 1025.33,-58 1029.17,-58 1033,-61.83 1033,-65.67 1033,-65.67 1033,-73.33 1033,-73.33 1033,-77.17 1029.17,-81 1025.33,-81"/>
<text text-anchor="middle" x="935.5" y="-65.8" font-family="Arial" font-size="14.00" fill="#ff6c60">database/repositories/index.js</text>
</g>
<!-- database/index.js&#45;&gt;database/repositories/index.js -->
<g id="edge5" class="edge">
<title>database/index.js&#45;&gt;database/repositories/index.js</title>
<path fill="none" stroke="#757575" d="M802.12,-55.75C810.37,-56.6 819.04,-57.5 827.83,-58.42"/>
<polygon fill="#757575" stroke="#757575" points="827.48,-61.9 837.79,-59.45 828.2,-54.94 827.48,-61.9"/>
</g>
<!-- database/repositories/FREPOSITORY.repository.js -->
<g id="node6" class="node">
<title>database/repositories/FREPOSITORY.repository.js</title>
<path fill="none" stroke="#ff6c60" d="M313.33,-82C313.33,-82 7.67,-82 7.67,-82 3.83,-82 0,-78.17 0,-74.33 0,-74.33 0,-66.67 0,-66.67 0,-62.83 3.83,-59 7.67,-59 7.67,-59 313.33,-59 313.33,-59 317.17,-59 321,-62.83 321,-66.67 321,-66.67 321,-74.33 321,-74.33 321,-78.17 317.17,-82 313.33,-82"/>
<text text-anchor="middle" x="160.5" y="-66.8" font-family="Arial" font-size="14.00" fill="#ff6c60">database/repositories/FREPOSITORY.repository.js</text>
</g>
<!-- database/repositories/index.js&#45;&gt;database/repositories/FREPOSITORY.repository.js -->
<g id="edge9" class="edge">
<title>database/repositories/index.js&#45;&gt;database/repositories/FREPOSITORY.repository.js</title>
<path fill="none" stroke="#757575" d="M837.94,-71.45C723.26,-73.51 526.19,-76.23 357,-74.5 348.58,-74.41 339.96,-74.31 331.25,-74.18"/>
<polygon fill="#757575" stroke="#757575" points="331.05,-70.68 321,-74.03 330.95,-77.68 331.05,-70.68"/>
</g>
<!-- database/repositories/FREPOSITORY.repository.js&#45;&gt;core/index.js -->
<g id="edge6" class="edge">
<title>database/repositories/FREPOSITORY.repository.js&#45;&gt;core/index.js</title>
<path fill="none" stroke="#757575" d="M210.2,-82.02C252.04,-91.91 312.33,-106.17 355.92,-116.47"/>
<polygon fill="#757575" stroke="#757575" points="355.25,-119.91 365.78,-118.81 356.86,-113.1 355.25,-119.91"/>
</g>
<!-- database/repositories/FREPOSITORY.repository.js&#45;&gt;database/index.js -->
<g id="edge7" class="edge">
<title>database/repositories/FREPOSITORY.repository.js&#45;&gt;database/index.js</title>
<path fill="none" stroke="#757575" d="M321.11,-64.71C435.36,-60.56 583.63,-55.18 669.66,-52.05"/>
<polygon fill="#757575" stroke="#757575" points="669.97,-55.54 679.84,-51.68 669.72,-48.55 669.97,-55.54"/>
</g>
<!-- helpers/index.js -->
<g id="node7" class="node">
<title>helpers/index.js</title>
<path fill="none" stroke="#ff6c60" d="M459.33,-23C459.33,-23 364.67,-23 364.67,-23 360.83,-23 357,-19.17 357,-15.33 357,-15.33 357,-7.67 357,-7.67 357,-3.83 360.83,0 364.67,0 364.67,0 459.33,0 459.33,0 463.17,0 467,-3.83 467,-7.67 467,-7.67 467,-15.33 467,-15.33 467,-19.17 463.17,-23 459.33,-23"/>
<text text-anchor="middle" x="412" y="-7.8" font-family="Arial" font-size="14.00" fill="#ff6c60">helpers/index.js</text>
</g>
<!-- database/repositories/FREPOSITORY.repository.js&#45;&gt;helpers/index.js -->
<g id="edge8" class="edge">
<title>database/repositories/FREPOSITORY.repository.js&#45;&gt;helpers/index.js</title>
<path fill="none" stroke="#757575" d="M210.2,-58.98C250.85,-49.37 308.93,-35.64 352.18,-25.41"/>
<polygon fill="#757575" stroke="#757575" points="353.07,-28.79 362,-23.09 351.46,-21.98 353.07,-28.79"/>
</g>
<!-- helpers/db.helper.js -->
<g id="node8" class="node">
<title>helpers/db.helper.js</title>
<path fill="none" stroke="#ff6c60" d="M632.83,-23C632.83,-23 514.17,-23 514.17,-23 510.33,-23 506.5,-19.17 506.5,-15.33 506.5,-15.33 506.5,-7.67 506.5,-7.67 506.5,-3.83 510.33,0 514.17,0 514.17,0 632.83,0 632.83,0 636.67,0 640.5,-3.83 640.5,-7.67 640.5,-7.67 640.5,-15.33 640.5,-15.33 640.5,-19.17 636.67,-23 632.83,-23"/>
<text text-anchor="middle" x="573.5" y="-7.8" font-family="Arial" font-size="14.00" fill="#ff6c60">helpers/db.helper.js</text>
</g>
<!-- helpers/index.js&#45;&gt;helpers/db.helper.js -->
<g id="edge11" class="edge">
<title>helpers/index.js&#45;&gt;helpers/db.helper.js</title>
<path fill="none" stroke="#757575" d="M467.44,-11.5C476.75,-11.5 486.58,-11.5 496.33,-11.5"/>
<polygon fill="#757575" stroke="#757575" points="496.44,-15 506.44,-11.5 496.44,-8 496.44,-15"/>
</g>
<!-- helpers/db.helper.js&#45;&gt;database/index.js -->
<g id="edge10" class="edge">
<title>helpers/db.helper.js&#45;&gt;database/index.js</title>
<path fill="none" stroke="#757575" d="M624.6,-23C642.02,-27 661.74,-31.53 679.89,-35.7"/>
<polygon fill="#757575" stroke="#757575" points="679.25,-39.14 689.78,-37.97 680.82,-32.32 679.25,-39.14"/>
</g>
</g>
</svg>
