<?xml version="1.0" encoding="UTF-8" standalone="no"?>
<!DOCTYPE svg PUBLIC "-//W3C//DTD SVG 1.1//EN"
 "http://www.w3.org/Graphics/SVG/1.1/DTD/svg11.dtd">
<!-- Generated by graphviz version 2.43.0 (0)
 -->
<!-- Title: G Pages: 1 -->
<svg width="465pt" height="66pt"
 viewBox="0.00 0.00 465.20 66.20" xmlns="http://www.w3.org/2000/svg" xmlns:xlink="http://www.w3.org/1999/xlink">
<g id="graph0" class="graph" transform="scale(1 1) rotate(0) translate(21.6 44.6)">
<title>G</title>
<polygon fill="#111111" stroke="transparent" points="-21.6,21.6 -21.6,-44.6 443.6,-44.6 443.6,21.6 -21.6,21.6"/>
<!-- core/JWT.core.js -->
<g id="node1" class="node">
<title>core/JWT.core.js</title>
<path fill="none" stroke="#ff6c60" d="M109.33,-23C109.33,-23 7.67,-23 7.67,-23 3.83,-23 0,-19.17 0,-15.33 0,-15.33 0,-7.67 0,-7.67 0,-3.83 3.83,0 7.67,0 7.67,0 109.33,0 109.33,0 113.17,0 117,-3.83 117,-7.67 117,-7.67 117,-15.33 117,-15.33 117,-19.17 113.17,-23 109.33,-23"/>
<text text-anchor="middle" x="58.5" y="-7.8" font-family="Arial" font-size="14.00" fill="#ff6c60">core/JWT.core.js</text>
</g>
<!-- core/index.js -->
<g id="node2" class="node">
<title>core/index.js</title>
<path fill="none" stroke="#ff6c60" d="M237.33,-23C237.33,-23 160.67,-23 160.67,-23 156.83,-23 153,-19.17 153,-15.33 153,-15.33 153,-7.67 153,-7.67 153,-3.83 156.83,0 160.67,0 160.67,0 237.33,0 237.33,0 241.17,0 245,-3.83 245,-7.67 245,-7.67 245,-15.33 245,-15.33 245,-19.17 241.17,-23 237.33,-23"/>
<text text-anchor="middle" x="199" y="-7.8" font-family="Arial" font-size="14.00" fill="#ff6c60">core/index.js</text>
</g>
<!-- core/JWT.core.js&#45;&gt;core/index.js -->
<g id="edge1" class="edge">
<title>core/JWT.core.js&#45;&gt;core/index.js</title>
<path fill="none" stroke="#757575" d="M117.03,-4.84C125.49,-4.71 134.18,-4.72 142.59,-4.87"/>
<polygon fill="#757575" stroke="#757575" points="142.59,-8.37 152.67,-5.12 142.76,-1.37 142.59,-8.37"/>
</g>
<!-- core/index.js&#45;&gt;core/JWT.core.js -->
<g id="edge3" class="edge">
<title>core/index.js&#45;&gt;core/JWT.core.js</title>
<path fill="none" stroke="#757575" d="M152.67,-17.88C144.49,-18.14 135.8,-18.27 127.15,-18.25"/>
<polygon fill="#757575" stroke="#757575" points="127.06,-14.75 117.03,-18.16 127,-21.75 127.06,-14.75"/>
</g>
<!-- core/api&#45;error.core.js -->
<g id="node3" class="node">
<title>core/api&#45;error.core.js</title>
<path fill="none" stroke="#ff6c60" d="M414.33,-23C414.33,-23 288.67,-23 288.67,-23 284.83,-23 281,-19.17 281,-15.33 281,-15.33 281,-7.67 281,-7.67 281,-3.83 284.83,0 288.67,0 288.67,0 414.33,0 414.33,0 418.17,0 422,-3.83 422,-7.67 422,-7.67 422,-15.33 422,-15.33 422,-19.17 418.17,-23 414.33,-23"/>
<text text-anchor="middle" x="351.5" y="-7.8" font-family="Arial" font-size="14.00" fill="#ff6c60">core/api&#45;error.core.js</text>
</g>
<!-- core/index.js&#45;&gt;core/api&#45;error.core.js -->
<g id="edge4" class="edge">
<title>core/index.js&#45;&gt;core/api&#45;error.core.js</title>
<path fill="none" stroke="#757575" d="M245.15,-5.25C253.25,-4.97 261.89,-4.8 270.62,-4.76"/>
<polygon fill="#757575" stroke="#757575" points="270.88,-8.26 280.88,-4.77 270.88,-1.26 270.88,-8.26"/>
</g>
<!-- core/api&#45;error.core.js&#45;&gt;core/index.js -->
<g id="edge2" class="edge">
<title>core/api&#45;error.core.js&#45;&gt;core/index.js</title>
<path fill="none" stroke="#757575" d="M280.88,-18.23C272.25,-18.28 263.52,-18.22 255.15,-18.03"/>
<polygon fill="#757575" stroke="#757575" points="255.25,-14.53 245.15,-17.75 255.05,-21.53 255.25,-14.53"/>
</g>
</g>
</svg>
