<?xml version="1.0" encoding="UTF-8" standalone="no"?>
<!DOCTYPE svg PUBLIC "-//W3C//DTD SVG 1.1//EN"
 "http://www.w3.org/Graphics/SVG/1.1/DTD/svg11.dtd">
<!-- Generated by graphviz version 2.43.0 (0)
 -->
<!-- Title: G Pages: 1 -->
<svg width="772pt" height="164pt"
 viewBox="0.00 0.00 772.20 164.20" xmlns="http://www.w3.org/2000/svg" xmlns:xlink="http://www.w3.org/1999/xlink">
<g id="graph0" class="graph" transform="scale(1 1) rotate(0) translate(21.6 142.6)">
<title>G</title>
<polygon fill="#111111" stroke="transparent" points="-21.6,21.6 -21.6,-142.6 750.6,-142.6 750.6,21.6 -21.6,21.6"/>
<!-- core/JWT.core.js -->
<g id="node1" class="node">
<title>core/JWT.core.js</title>
<path fill="none" stroke="#ff6c60" d="M174.83,-121C174.83,-121 73.17,-121 73.17,-121 69.33,-121 65.5,-117.17 65.5,-113.33 65.5,-113.33 65.5,-105.67 65.5,-105.67 65.5,-101.83 69.33,-98 73.17,-98 73.17,-98 174.83,-98 174.83,-98 178.67,-98 182.5,-101.83 182.5,-105.67 182.5,-105.67 182.5,-113.33 182.5,-113.33 182.5,-117.17 178.67,-121 174.83,-121"/>
<text text-anchor="middle" x="124" y="-105.8" font-family="Arial" font-size="14.00" fill="#ff6c60">core/JWT.core.js</text>
</g>
<!-- core/index.js -->
<g id="node2" class="node">
<title>core/index.js</title>
<path fill="none" stroke="#ff6c60" d="M377.33,-121C377.33,-121 300.67,-121 300.67,-121 296.83,-121 293,-117.17 293,-113.33 293,-113.33 293,-105.67 293,-105.67 293,-101.83 296.83,-98 300.67,-98 300.67,-98 377.33,-98 377.33,-98 381.17,-98 385,-101.83 385,-105.67 385,-105.67 385,-113.33 385,-113.33 385,-117.17 381.17,-121 377.33,-121"/>
<text text-anchor="middle" x="339" y="-105.8" font-family="Arial" font-size="14.00" fill="#ff6c60">core/index.js</text>
</g>
<!-- core/JWT.core.js&#45;&gt;core/index.js -->
<g id="edge1" class="edge">
<title>core/JWT.core.js&#45;&gt;core/index.js</title>
<path fill="none" stroke="#757575" d="M182.64,-103.43C213.75,-102.5 251.95,-102.53 282.69,-103.5"/>
<polygon fill="#757575" stroke="#757575" points="282.68,-107 292.8,-103.86 282.94,-100 282.68,-107"/>
</g>
<!-- core/index.js&#45;&gt;core/JWT.core.js -->
<g id="edge3" class="edge">
<title>core/index.js&#45;&gt;core/JWT.core.js</title>
<path fill="none" stroke="#757575" d="M292.8,-115.14C263.81,-116.33 225.63,-116.56 193.02,-115.84"/>
<polygon fill="#757575" stroke="#757575" points="192.73,-112.33 182.64,-115.57 192.55,-119.33 192.73,-112.33"/>
</g>
<!-- core/api&#45;error.core.js -->
<g id="node3" class="node">
<title>core/api&#45;error.core.js</title>
<path fill="none" stroke="#ff6c60" d="M563.33,-121C563.33,-121 437.67,-121 437.67,-121 433.83,-121 430,-117.17 430,-113.33 430,-113.33 430,-105.67 430,-105.67 430,-101.83 433.83,-98 437.67,-98 437.67,-98 563.33,-98 563.33,-98 567.17,-98 571,-101.83 571,-105.67 571,-105.67 571,-113.33 571,-113.33 571,-117.17 567.17,-121 563.33,-121"/>
<text text-anchor="middle" x="500.5" y="-105.8" font-family="Arial" font-size="14.00" fill="#ff6c60">core/api&#45;error.core.js</text>
</g>
<!-- core/index.js&#45;&gt;core/api&#45;error.core.js -->
<g id="edge4" class="edge">
<title>core/index.js&#45;&gt;core/api&#45;error.core.js</title>
<path fill="none" stroke="#757575" d="M385.28,-103.34C396.04,-102.95 407.83,-102.75 419.62,-102.75"/>
<polygon fill="#757575" stroke="#757575" points="419.95,-106.25 429.97,-102.8 419.98,-99.25 419.95,-106.25"/>
</g>
<!-- core/api&#45;error.core.js&#45;&gt;core/index.js -->
<g id="edge2" class="edge">
<title>core/api&#45;error.core.js&#45;&gt;core/index.js</title>
<path fill="none" stroke="#757575" d="M429.97,-116.2C418.37,-116.31 406.49,-116.23 395.31,-115.96"/>
<polygon fill="#757575" stroke="#757575" points="395.38,-112.46 385.28,-115.66 395.17,-119.46 395.38,-112.46"/>
</g>
<!-- database/FREPOSITORY.repository.js -->
<g id="node4" class="node">
<title>database/FREPOSITORY.repository.js</title>
<path fill="none" stroke="#ff6c60" d="M240.33,-72C240.33,-72 7.67,-72 7.67,-72 3.83,-72 0,-68.17 0,-64.33 0,-64.33 0,-56.67 0,-56.67 0,-52.83 3.83,-49 7.67,-49 7.67,-49 240.33,-49 240.33,-49 244.17,-49 248,-52.83 248,-56.67 248,-56.67 248,-64.33 248,-64.33 248,-68.17 244.17,-72 240.33,-72"/>
<text text-anchor="middle" x="124" y="-56.8" font-family="Arial" font-size="14.00" fill="#ff6c60">database/FREPOSITORY.repository.js</text>
</g>
<!-- database/FREPOSITORY.repository.js&#45;&gt;core/index.js -->
<g id="edge5" class="edge">
<title>database/FREPOSITORY.repository.js&#45;&gt;core/index.js</title>
<path fill="none" stroke="#757575" d="M175.21,-72.05C207.53,-79.49 249.56,-89.16 282.82,-96.81"/>
<polygon fill="#757575" stroke="#757575" points="282.31,-100.28 292.84,-99.11 283.88,-93.46 282.31,-100.28"/>
</g>
<!-- database/index.js -->
<g id="node5" class="node">
<title>database/index.js</title>
<path fill="none" stroke="#ff6c60" d="M721.33,-72C721.33,-72 614.67,-72 614.67,-72 610.83,-72 607,-68.17 607,-64.33 607,-64.33 607,-56.67 607,-56.67 607,-52.83 610.83,-49 614.67,-49 614.67,-49 721.33,-49 721.33,-49 725.17,-49 729,-52.83 729,-56.67 729,-56.67 729,-64.33 729,-64.33 729,-68.17 725.17,-72 721.33,-72"/>
<text text-anchor="middle" x="668" y="-56.8" font-family="Arial" font-size="14.00" fill="#ff6c60">database/index.js</text>
</g>
<!-- database/FREPOSITORY.repository.js&#45;&gt;database/index.js -->
<g id="edge6" class="edge">
<title>database/FREPOSITORY.repository.js&#45;&gt;database/index.js</title>
<path fill="none" stroke="#757575" d="M248.33,-54.73C356.05,-53.13 508.59,-53.48 596.71,-55.78"/>
<polygon fill="#757575" stroke="#757575" points="596.77,-59.29 606.87,-56.07 596.97,-52.29 596.77,-59.29"/>
</g>
<!-- helpers/index.js -->
<g id="node6" class="node">
<title>helpers/index.js</title>
<path fill="none" stroke="#ff6c60" d="M386.33,-23C386.33,-23 291.67,-23 291.67,-23 287.83,-23 284,-19.17 284,-15.33 284,-15.33 284,-7.67 284,-7.67 284,-3.83 287.83,0 291.67,0 291.67,0 386.33,0 386.33,0 390.17,0 394,-3.83 394,-7.67 394,-7.67 394,-15.33 394,-15.33 394,-19.17 390.17,-23 386.33,-23"/>
<text text-anchor="middle" x="339" y="-7.8" font-family="Arial" font-size="14.00" fill="#ff6c60">helpers/index.js</text>
</g>
<!-- database/FREPOSITORY.repository.js&#45;&gt;helpers/index.js -->
<g id="edge7" class="edge">
<title>database/FREPOSITORY.repository.js&#45;&gt;helpers/index.js</title>
<path fill="none" stroke="#757575" d="M175.21,-48.95C205.97,-41.87 245.53,-32.77 277.95,-25.32"/>
<polygon fill="#757575" stroke="#757575" points="278.8,-28.71 287.76,-23.06 277.23,-21.89 278.8,-28.71"/>
</g>
<!-- database/index.js&#45;&gt;database/FREPOSITORY.repository.js -->
<g id="edge8" class="edge">
<title>database/index.js&#45;&gt;database/FREPOSITORY.repository.js</title>
<path fill="none" stroke="#757575" d="M606.87,-64.93C523.35,-67.41 369.96,-67.9 258.63,-66.41"/>
<polygon fill="#757575" stroke="#757575" points="258.38,-62.91 248.33,-66.27 258.28,-69.91 258.38,-62.91"/>
</g>
<!-- helpers/db.helper.js -->
<g id="node7" class="node">
<title>helpers/db.helper.js</title>
<path fill="none" stroke="#ff6c60" d="M559.83,-23C559.83,-23 441.17,-23 441.17,-23 437.33,-23 433.5,-19.17 433.5,-15.33 433.5,-15.33 433.5,-7.67 433.5,-7.67 433.5,-3.83 437.33,0 441.17,0 441.17,0 559.83,0 559.83,0 563.67,0 567.5,-3.83 567.5,-7.67 567.5,-7.67 567.5,-15.33 567.5,-15.33 567.5,-19.17 563.67,-23 559.83,-23"/>
<text text-anchor="middle" x="500.5" y="-7.8" font-family="Arial" font-size="14.00" fill="#ff6c60">helpers/db.helper.js</text>
</g>
<!-- helpers/index.js&#45;&gt;helpers/db.helper.js -->
<g id="edge10" class="edge">
<title>helpers/index.js&#45;&gt;helpers/db.helper.js</title>
<path fill="none" stroke="#757575" d="M394.44,-11.5C403.75,-11.5 413.58,-11.5 423.33,-11.5"/>
<polygon fill="#757575" stroke="#757575" points="423.44,-15 433.44,-11.5 423.44,-8 423.44,-15"/>
</g>
<!-- helpers/db.helper.js&#45;&gt;database/index.js -->
<g id="edge9" class="edge">
<title>helpers/db.helper.js&#45;&gt;database/index.js</title>
<path fill="none" stroke="#757575" d="M540.72,-23.11C563.91,-29.98 593.47,-38.73 618.16,-46.04"/>
<polygon fill="#757575" stroke="#757575" points="617.48,-49.49 628.06,-48.97 619.47,-42.78 617.48,-49.49"/>
</g>
</g>
</svg>
