<?xml version="1.0" encoding="UTF-8" standalone="no"?>
<!DOCTYPE svg PUBLIC "-//W3C//DTD SVG 1.1//EN"
 "http://www.w3.org/Graphics/SVG/1.1/DTD/svg11.dtd">
<!-- Generated by graphviz version 2.43.0 (0)
 -->
<!-- Title: G Pages: 1 -->
<svg width="626pt" height="107pt"
 viewBox="0.00 0.00 626.20 107.20" xmlns="http://www.w3.org/2000/svg" xmlns:xlink="http://www.w3.org/1999/xlink">
<g id="graph0" class="graph" transform="scale(1 1) rotate(0) translate(21.6 85.6)">
<title>G</title>
<polygon fill="#111111" stroke="transparent" points="-21.6,21.6 -21.6,-85.6 604.6,-85.6 604.6,21.6 -21.6,21.6"/>
<!-- core/JWT.core.js -->
<g id="node1" class="node">
<title>core/JWT.core.js</title>
<path fill="none" stroke="#ff6c60" d="M174.83,-64C174.83,-64 73.17,-64 73.17,-64 69.33,-64 65.5,-60.17 65.5,-56.33 65.5,-56.33 65.5,-48.67 65.5,-48.67 65.5,-44.83 69.33,-41 73.17,-41 73.17,-41 174.83,-41 174.83,-41 178.67,-41 182.5,-44.83 182.5,-48.67 182.5,-48.67 182.5,-56.33 182.5,-56.33 182.5,-60.17 178.67,-64 174.83,-64"/>
<text text-anchor="middle" x="124" y="-48.8" font-family="Arial" font-size="14.00" fill="#ff6c60">core/JWT.core.js</text>
</g>
<!-- core/index.js -->
<g id="node2" class="node">
<title>core/index.js</title>
<path fill="none" stroke="#ff6c60" d="M383.33,-64C383.33,-64 306.67,-64 306.67,-64 302.83,-64 299,-60.17 299,-56.33 299,-56.33 299,-48.67 299,-48.67 299,-44.83 302.83,-41 306.67,-41 306.67,-41 383.33,-41 383.33,-41 387.17,-41 391,-44.83 391,-48.67 391,-48.67 391,-56.33 391,-56.33 391,-60.17 387.17,-64 383.33,-64"/>
<text text-anchor="middle" x="345" y="-48.8" font-family="Arial" font-size="14.00" fill="#ff6c60">core/index.js</text>
</g>
<!-- core/JWT.core.js&#45;&gt;core/index.js -->
<g id="edge1" class="edge">
<title>core/JWT.core.js&#45;&gt;core/index.js</title>
<path fill="none" stroke="#757575" d="M182.54,-46.48C215.36,-45.48 256.29,-45.51 288.72,-46.55"/>
<polygon fill="#757575" stroke="#757575" points="288.81,-50.05 298.93,-46.92 289.07,-43.06 288.81,-50.05"/>
</g>
<!-- core/index.js&#45;&gt;core/JWT.core.js -->
<g id="edge3" class="edge">
<title>core/index.js&#45;&gt;core/JWT.core.js</title>
<path fill="none" stroke="#757575" d="M298.93,-58.08C268.27,-59.35 227.13,-59.59 192.57,-58.79"/>
<polygon fill="#757575" stroke="#757575" points="192.63,-55.29 182.54,-58.52 192.44,-62.29 192.63,-55.29"/>
</g>
<!-- core/api&#45;error.core.js -->
<g id="node3" class="node">
<title>core/api&#45;error.core.js</title>
<path fill="none" stroke="#ff6c60" d="M575.33,-64C575.33,-64 449.67,-64 449.67,-64 445.83,-64 442,-60.17 442,-56.33 442,-56.33 442,-48.67 442,-48.67 442,-44.83 445.83,-41 449.67,-41 449.67,-41 575.33,-41 575.33,-41 579.17,-41 583,-44.83 583,-48.67 583,-48.67 583,-56.33 583,-56.33 583,-60.17 579.17,-64 575.33,-64"/>
<text text-anchor="middle" x="512.5" y="-48.8" font-family="Arial" font-size="14.00" fill="#ff6c60">core/api&#45;error.core.js</text>
</g>
<!-- core/index.js&#45;&gt;core/api&#45;error.core.js -->
<g id="edge4" class="edge">
<title>core/index.js&#45;&gt;core/api&#45;error.core.js</title>
<path fill="none" stroke="#757575" d="M391.22,-46.41C403.78,-45.94 417.79,-45.72 431.7,-45.75"/>
<polygon fill="#757575" stroke="#757575" points="431.75,-49.25 441.78,-45.82 431.8,-42.25 431.75,-49.25"/>
</g>
<!-- core/api&#45;error.core.js&#45;&gt;core/index.js -->
<g id="edge2" class="edge">
<title>core/api&#45;error.core.js&#45;&gt;core/index.js</title>
<path fill="none" stroke="#757575" d="M441.78,-59.18C428.29,-59.33 414.32,-59.24 401.37,-58.91"/>
<polygon fill="#757575" stroke="#757575" points="401.33,-55.41 391.22,-58.59 401.11,-62.4 401.33,-55.41"/>
</g>
<!-- database/FREPOSITORY.repository.js -->
<g id="node4" class="node">
<title>database/FREPOSITORY.repository.js</title>
<path fill="none" stroke="#ff6c60" d="M240.33,-23C240.33,-23 7.67,-23 7.67,-23 3.83,-23 0,-19.17 0,-15.33 0,-15.33 0,-7.67 0,-7.67 0,-3.83 3.83,0 7.67,0 7.67,0 240.33,0 240.33,0 244.17,0 248,-3.83 248,-7.67 248,-7.67 248,-15.33 248,-15.33 248,-19.17 244.17,-23 240.33,-23"/>
<text text-anchor="middle" x="124" y="-7.8" font-family="Arial" font-size="14.00" fill="#ff6c60">database/FREPOSITORY.repository.js</text>
</g>
<!-- database/FREPOSITORY.repository.js&#45;&gt;core/index.js -->
<g id="edge5" class="edge">
<title>database/FREPOSITORY.repository.js&#45;&gt;core/index.js</title>
<path fill="none" stroke="#757575" d="M199.92,-23.02C215.82,-25.65 232.49,-28.54 248,-31.5 261.22,-34.02 275.41,-36.98 288.72,-39.87"/>
<polygon fill="#757575" stroke="#757575" points="288.17,-43.33 298.69,-42.06 289.67,-36.5 288.17,-43.33"/>
</g>
<!-- database/index.js -->
<g id="node5" class="node">
<title>database/index.js</title>
<path fill="none" stroke="#ff6c60" d="M398.33,-23C398.33,-23 291.67,-23 291.67,-23 287.83,-23 284,-19.17 284,-15.33 284,-15.33 284,-7.67 284,-7.67 284,-3.83 287.83,0 291.67,0 291.67,0 398.33,0 398.33,0 402.17,0 406,-3.83 406,-7.67 406,-7.67 406,-15.33 406,-15.33 406,-19.17 402.17,-23 398.33,-23"/>
<text text-anchor="middle" x="345" y="-7.8" font-family="Arial" font-size="14.00" fill="#ff6c60">database/index.js</text>
</g>
<!-- database/FREPOSITORY.repository.js&#45;&gt;database/index.js -->
<g id="edge6" class="edge">
<title>database/FREPOSITORY.repository.js&#45;&gt;database/index.js</title>
<path fill="none" stroke="#757575" d="M248.26,-4.8C256.95,-4.86 265.52,-4.98 273.74,-5.15"/>
<polygon fill="#757575" stroke="#757575" points="273.88,-8.66 283.96,-5.4 274.05,-1.66 273.88,-8.66"/>
</g>
<!-- database/index.js&#45;&gt;database/FREPOSITORY.repository.js -->
<g id="edge7" class="edge">
<title>database/index.js&#45;&gt;database/FREPOSITORY.repository.js</title>
<path fill="none" stroke="#757575" d="M283.96,-17.6C275.8,-17.83 267.17,-18 258.33,-18.11"/>
<polygon fill="#757575" stroke="#757575" points="258.23,-14.61 248.26,-18.2 258.3,-21.61 258.23,-14.61"/>
</g>
</g>
</svg>
