<?xml version="1.0" encoding="UTF-8" standalone="no"?>
<!DOCTYPE svg PUBLIC "-//W3C//DTD SVG 1.1//EN"
 "http://www.w3.org/Graphics/SVG/1.1/DTD/svg11.dtd">
<!-- Generated by graphviz version 2.43.0 (0)
 -->
<!-- Title: G Pages: 1 -->
<svg width="1634pt" height="553pt"
 viewBox="0.00 0.00 1634.20 552.77" xmlns="http://www.w3.org/2000/svg" xmlns:xlink="http://www.w3.org/1999/xlink">
<g id="graph0" class="graph" transform="scale(1 1) rotate(0) translate(21.6 531.17)">
<title>G</title>
<polygon fill="#111111" stroke="transparent" points="-21.6,21.6 -21.6,-531.17 1612.6,-531.17 1612.6,21.6 -21.6,21.6"/>
<!-- core/JWT.core.js -->
<g id="node1" class="node">
<title>core/JWT.core.js</title>
<path fill="none" stroke="#ff6c60" d="M1198.83,-417.44C1198.83,-417.44 1097.17,-417.44 1097.17,-417.44 1093.33,-417.44 1089.5,-413.61 1089.5,-409.77 1089.5,-409.77 1089.5,-402.11 1089.5,-402.11 1089.5,-398.27 1093.33,-394.44 1097.17,-394.44 1097.17,-394.44 1198.83,-394.44 1198.83,-394.44 1202.67,-394.44 1206.5,-398.27 1206.5,-402.11 1206.5,-402.11 1206.5,-409.77 1206.5,-409.77 1206.5,-413.61 1202.67,-417.44 1198.83,-417.44"/>
<text text-anchor="middle" x="1148" y="-402.24" font-family="Arial" font-size="14.00" fill="#ff6c60">core/JWT.core.js</text>
</g>
<!-- core/index.js -->
<g id="node2" class="node">
<title>core/index.js</title>
<path fill="none" stroke="#ff6c60" d="M1406.33,-355.44C1406.33,-355.44 1329.67,-355.44 1329.67,-355.44 1325.83,-355.44 1322,-351.61 1322,-347.77 1322,-347.77 1322,-340.11 1322,-340.11 1322,-336.27 1325.83,-332.44 1329.67,-332.44 1329.67,-332.44 1406.33,-332.44 1406.33,-332.44 1410.17,-332.44 1414,-336.27 1414,-340.11 1414,-340.11 1414,-347.77 1414,-347.77 1414,-351.61 1410.17,-355.44 1406.33,-355.44"/>
<text text-anchor="middle" x="1368" y="-340.24" font-family="Arial" font-size="14.00" fill="#ff6c60">core/index.js</text>
</g>
<!-- core/JWT.core.js&#45;&gt;core/index.js -->
<g id="edge1" class="edge">
<title>core/JWT.core.js&#45;&gt;core/index.js</title>
<path fill="none" stroke="#757575" d="M1200.67,-394.42C1226.73,-390.73 1258.55,-385.78 1286,-376.94 1299.46,-372.6 1313.38,-366.19 1325.8,-360.05"/>
<polygon fill="#757575" stroke="#757575" points="1327.6,-363.06 1334.98,-355.45 1324.47,-356.8 1327.6,-363.06"/>
</g>
<!-- core/index.js&#45;&gt;core/JWT.core.js -->
<g id="edge3" class="edge">
<title>core/index.js&#45;&gt;core/JWT.core.js</title>
<path fill="none" stroke="#757575" d="M1357.97,-355.58C1343.45,-368.22 1313.74,-386 1286,-394.94 1263.98,-402.03 1239.15,-406.62 1216.73,-409.11"/>
<polygon fill="#757575" stroke="#757575" points="1216.23,-405.64 1206.62,-410.1 1216.92,-412.6 1216.23,-405.64"/>
</g>
<!-- core/api&#45;error.core.js -->
<g id="node3" class="node">
<title>core/api&#45;error.core.js</title>
<path fill="none" stroke="#ff6c60" d="M1583.33,-355.44C1583.33,-355.44 1457.67,-355.44 1457.67,-355.44 1453.83,-355.44 1450,-351.61 1450,-347.77 1450,-347.77 1450,-340.11 1450,-340.11 1450,-336.27 1453.83,-332.44 1457.67,-332.44 1457.67,-332.44 1583.33,-332.44 1583.33,-332.44 1587.17,-332.44 1591,-336.27 1591,-340.11 1591,-340.11 1591,-347.77 1591,-347.77 1591,-351.61 1587.17,-355.44 1583.33,-355.44"/>
<text text-anchor="middle" x="1520.5" y="-340.24" font-family="Arial" font-size="14.00" fill="#ff6c60">core/api&#45;error.core.js</text>
</g>
<!-- core/index.js&#45;&gt;core/api&#45;error.core.js -->
<g id="edge4" class="edge">
<title>core/index.js&#45;&gt;core/api&#45;error.core.js</title>
<path fill="none" stroke="#757575" d="M1414.15,-337.69C1422.25,-337.41 1430.89,-337.24 1439.62,-337.2"/>
<polygon fill="#757575" stroke="#757575" points="1439.88,-340.7 1449.88,-337.21 1439.88,-333.7 1439.88,-340.7"/>
</g>
<!-- core/api&#45;error.core.js&#45;&gt;core/index.js -->
<g id="edge2" class="edge">
<title>core/api&#45;error.core.js&#45;&gt;core/index.js</title>
<path fill="none" stroke="#757575" d="M1449.88,-350.67C1441.25,-350.72 1432.52,-350.66 1424.15,-350.47"/>
<polygon fill="#757575" stroke="#757575" points="1424.25,-346.97 1414.15,-350.19 1424.05,-353.97 1424.25,-346.97"/>
</g>
<!-- database/index.js -->
<g id="node4" class="node">
<title>database/index.js</title>
<path fill="none" stroke="#ff6c60" d="M735.33,-239.44C735.33,-239.44 628.67,-239.44 628.67,-239.44 624.83,-239.44 621,-235.61 621,-231.77 621,-231.77 621,-224.11 621,-224.11 621,-220.27 624.83,-216.44 628.67,-216.44 628.67,-216.44 735.33,-216.44 735.33,-216.44 739.17,-216.44 743,-220.27 743,-224.11 743,-224.11 743,-231.77 743,-231.77 743,-235.61 739.17,-239.44 735.33,-239.44"/>
<text text-anchor="middle" x="682" y="-224.24" font-family="Arial" font-size="14.00" fill="#ff6c60">database/index.js</text>
</g>
<!-- database/models/index.js -->
<g id="node5" class="node">
<title>database/models/index.js</title>
<path fill="none" stroke="#ff6c60" d="M953.83,-161.44C953.83,-161.44 799.17,-161.44 799.17,-161.44 795.33,-161.44 791.5,-157.61 791.5,-153.77 791.5,-153.77 791.5,-146.11 791.5,-146.11 791.5,-142.27 795.33,-138.44 799.17,-138.44 799.17,-138.44 953.83,-138.44 953.83,-138.44 957.67,-138.44 961.5,-142.27 961.5,-146.11 961.5,-146.11 961.5,-153.77 961.5,-153.77 961.5,-157.61 957.67,-161.44 953.83,-161.44"/>
<text text-anchor="middle" x="876.5" y="-146.24" font-family="Arial" font-size="14.00" fill="#ff6c60">database/models/index.js</text>
</g>
<!-- database/index.js&#45;&gt;database/models/index.js -->
<g id="edge5" class="edge">
<title>database/index.js&#45;&gt;database/models/index.js</title>
<path fill="none" stroke="#757575" d="M701.49,-216.23C720.38,-204.69 750.83,-187.18 779,-175.94 790.08,-171.52 802.17,-167.6 813.92,-164.22"/>
<polygon fill="#757575" stroke="#757575" points="814.99,-167.56 823.69,-161.52 813.12,-160.81 814.99,-167.56"/>
</g>
<!-- database/repositories/index.js -->
<g id="node6" class="node">
<title>database/repositories/index.js</title>
<path fill="none" stroke="#ff6c60" d="M966.33,-317.44C966.33,-317.44 786.67,-317.44 786.67,-317.44 782.83,-317.44 779,-313.61 779,-309.77 779,-309.77 779,-302.11 779,-302.11 779,-298.27 782.83,-294.44 786.67,-294.44 786.67,-294.44 966.33,-294.44 966.33,-294.44 970.17,-294.44 974,-298.27 974,-302.11 974,-302.11 974,-309.77 974,-309.77 974,-313.61 970.17,-317.44 966.33,-317.44"/>
<text text-anchor="middle" x="876.5" y="-302.24" font-family="Arial" font-size="14.00" fill="#ff6c60">database/repositories/index.js</text>
</g>
<!-- database/index.js&#45;&gt;database/repositories/index.js -->
<g id="edge6" class="edge">
<title>database/index.js&#45;&gt;database/repositories/index.js</title>
<path fill="none" stroke="#757575" d="M701.49,-239.65C720.38,-251.19 750.83,-268.7 779,-279.94 790.08,-284.36 802.17,-288.28 813.92,-291.66"/>
<polygon fill="#757575" stroke="#757575" points="813.12,-295.07 823.69,-294.36 814.99,-288.32 813.12,-295.07"/>
</g>
<!-- database/models/group.model.js -->
<g id="node7" class="node">
<title>database/models/group.model.js</title>
<path fill="none" stroke="#ff6c60" d="M1246.83,-197.44C1246.83,-197.44 1049.17,-197.44 1049.17,-197.44 1045.33,-197.44 1041.5,-193.61 1041.5,-189.77 1041.5,-189.77 1041.5,-182.11 1041.5,-182.11 1041.5,-178.27 1045.33,-174.44 1049.17,-174.44 1049.17,-174.44 1246.83,-174.44 1246.83,-174.44 1250.67,-174.44 1254.5,-178.27 1254.5,-182.11 1254.5,-182.11 1254.5,-189.77 1254.5,-189.77 1254.5,-193.61 1250.67,-197.44 1246.83,-197.44"/>
<text text-anchor="middle" x="1148" y="-182.24" font-family="Arial" font-size="14.00" fill="#ff6c60">database/models/group.model.js</text>
</g>
<!-- database/models/index.js&#45;&gt;database/models/group.model.js -->
<g id="edge8" class="edge">
<title>database/models/index.js&#45;&gt;database/models/group.model.js</title>
<path fill="none" stroke="#757575" d="M961.66,-161.18C989.85,-164.95 1021.48,-169.17 1050.53,-173.05"/>
<polygon fill="#757575" stroke="#757575" points="1050.31,-176.56 1060.69,-174.41 1051.24,-169.62 1050.31,-176.56"/>
</g>
<!-- database/models/keystore.model.js -->
<g id="node8" class="node">
<title>database/models/keystore.model.js</title>
<path fill="none" stroke="#ff6c60" d="M1255.33,-148.44C1255.33,-148.44 1040.67,-148.44 1040.67,-148.44 1036.83,-148.44 1033,-144.61 1033,-140.77 1033,-140.77 1033,-133.11 1033,-133.11 1033,-129.27 1036.83,-125.44 1040.67,-125.44 1040.67,-125.44 1255.33,-125.44 1255.33,-125.44 1259.17,-125.44 1263,-129.27 1263,-133.11 1263,-133.11 1263,-140.77 1263,-140.77 1263,-144.61 1259.17,-148.44 1255.33,-148.44"/>
<text text-anchor="middle" x="1148" y="-133.24" font-family="Arial" font-size="14.00" fill="#ff6c60">database/models/keystore.model.js</text>
</g>
<!-- database/models/index.js&#45;&gt;database/models/keystore.model.js -->
<g id="edge9" class="edge">
<title>database/models/index.js&#45;&gt;database/models/keystore.model.js</title>
<path fill="none" stroke="#757575" d="M961.66,-145.88C981.04,-144.95 1002.05,-143.93 1022.73,-142.93"/>
<polygon fill="#757575" stroke="#757575" points="1023.03,-146.42 1032.85,-142.45 1022.69,-139.43 1023.03,-146.42"/>
</g>
<!-- database/models/user.model.js -->
<g id="node9" class="node">
<title>database/models/user.model.js</title>
<path fill="none" stroke="#ff6c60" d="M1242.83,-90.44C1242.83,-90.44 1053.17,-90.44 1053.17,-90.44 1049.33,-90.44 1045.5,-86.61 1045.5,-82.77 1045.5,-82.77 1045.5,-75.11 1045.5,-75.11 1045.5,-71.27 1049.33,-67.44 1053.17,-67.44 1053.17,-67.44 1242.83,-67.44 1242.83,-67.44 1246.67,-67.44 1250.5,-71.27 1250.5,-75.11 1250.5,-75.11 1250.5,-82.77 1250.5,-82.77 1250.5,-86.61 1246.67,-90.44 1242.83,-90.44"/>
<text text-anchor="middle" x="1148" y="-75.24" font-family="Arial" font-size="14.00" fill="#ff6c60">database/models/user.model.js</text>
</g>
<!-- database/models/index.js&#45;&gt;database/models/user.model.js -->
<g id="edge10" class="edge">
<title>database/models/index.js&#45;&gt;database/models/user.model.js</title>
<path fill="none" stroke="#757575" d="M921.4,-138.37C968.38,-126 1042.95,-106.35 1093.37,-93.07"/>
<polygon fill="#757575" stroke="#757575" points="1094.34,-96.43 1103.12,-90.5 1092.56,-89.66 1094.34,-96.43"/>
</g>
<!-- database/repositories/generic.repository.js -->
<g id="node10" class="node">
<title>database/repositories/generic.repository.js</title>
<path fill="none" stroke="#ff6c60" d="M261.33,-317.44C261.33,-317.44 7.67,-317.44 7.67,-317.44 3.83,-317.44 0,-313.61 0,-309.77 0,-309.77 0,-302.11 0,-302.11 0,-298.27 3.83,-294.44 7.67,-294.44 7.67,-294.44 261.33,-294.44 261.33,-294.44 265.17,-294.44 269,-298.27 269,-302.11 269,-302.11 269,-309.77 269,-309.77 269,-313.61 265.17,-317.44 261.33,-317.44"/>
<text text-anchor="middle" x="134.5" y="-302.24" font-family="Arial" font-size="14.00" fill="#ff6c60">database/repositories/generic.repository.js</text>
</g>
<!-- database/repositories/index.js&#45;&gt;database/repositories/generic.repository.js -->
<g id="edge18" class="edge">
<title>database/repositories/index.js&#45;&gt;database/repositories/generic.repository.js</title>
<path fill="none" stroke="#757575" d="M778.89,-305.94C651.54,-305.94 426.43,-305.94 279.11,-305.94"/>
<polygon fill="#757575" stroke="#757575" points="279.08,-302.44 269.08,-305.94 279.08,-309.44 279.08,-302.44"/>
</g>
<!-- database/repositories/group.repository.js -->
<g id="node12" class="node">
<title>database/repositories/group.repository.js</title>
<path fill="none" stroke="#ff6c60" d="M1270.33,-335.44C1270.33,-335.44 1025.67,-335.44 1025.67,-335.44 1021.83,-335.44 1018,-331.61 1018,-327.77 1018,-327.77 1018,-320.11 1018,-320.11 1018,-316.27 1021.83,-312.44 1025.67,-312.44 1025.67,-312.44 1270.33,-312.44 1270.33,-312.44 1274.17,-312.44 1278,-316.27 1278,-320.11 1278,-320.11 1278,-327.77 1278,-327.77 1278,-331.61 1274.17,-335.44 1270.33,-335.44"/>
<text text-anchor="middle" x="1148" y="-320.24" font-family="Arial" font-size="14.00" fill="#ff6c60">database/repositories/group.repository.js</text>
</g>
<!-- database/repositories/index.js&#45;&gt;database/repositories/group.repository.js -->
<g id="edge19" class="edge">
<title>database/repositories/index.js&#45;&gt;database/repositories/group.repository.js</title>
<path fill="none" stroke="#757575" d="M974.03,-312.39C985.02,-313.12 996.37,-313.88 1007.76,-314.64"/>
<polygon fill="#757575" stroke="#757575" points="1007.56,-318.13 1017.77,-315.31 1008.03,-311.15 1007.56,-318.13"/>
</g>
<!-- database/repositories/keystore.repository.js -->
<g id="node13" class="node">
<title>database/repositories/keystore.repository.js</title>
<path fill="none" stroke="#ff6c60" d="M1278.33,-294.44C1278.33,-294.44 1017.67,-294.44 1017.67,-294.44 1013.83,-294.44 1010,-290.61 1010,-286.77 1010,-286.77 1010,-279.11 1010,-279.11 1010,-275.27 1013.83,-271.44 1017.67,-271.44 1017.67,-271.44 1278.33,-271.44 1278.33,-271.44 1282.17,-271.44 1286,-275.27 1286,-279.11 1286,-279.11 1286,-286.77 1286,-286.77 1286,-290.61 1282.17,-294.44 1278.33,-294.44"/>
<text text-anchor="middle" x="1148" y="-279.24" font-family="Arial" font-size="14.00" fill="#ff6c60">database/repositories/keystore.repository.js</text>
</g>
<!-- database/repositories/index.js&#45;&gt;database/repositories/keystore.repository.js -->
<g id="edge20" class="edge">
<title>database/repositories/index.js&#45;&gt;database/repositories/keystore.repository.js</title>
<path fill="none" stroke="#757575" d="M974.03,-297.7C983.13,-296.93 992.48,-296.13 1001.89,-295.32"/>
<polygon fill="#757575" stroke="#757575" points="1002.46,-298.79 1012.13,-294.45 1001.87,-291.81 1002.46,-298.79"/>
</g>
<!-- database/repositories/user.repository.js -->
<g id="node14" class="node">
<title>database/repositories/user.repository.js</title>
<path fill="none" stroke="#ff6c60" d="M1265.83,-376.44C1265.83,-376.44 1030.17,-376.44 1030.17,-376.44 1026.33,-376.44 1022.5,-372.61 1022.5,-368.77 1022.5,-368.77 1022.5,-361.11 1022.5,-361.11 1022.5,-357.27 1026.33,-353.44 1030.17,-353.44 1030.17,-353.44 1265.83,-353.44 1265.83,-353.44 1269.67,-353.44 1273.5,-357.27 1273.5,-361.11 1273.5,-361.11 1273.5,-368.77 1273.5,-368.77 1273.5,-372.61 1269.67,-376.44 1265.83,-376.44"/>
<text text-anchor="middle" x="1148" y="-361.24" font-family="Arial" font-size="14.00" fill="#ff6c60">database/repositories/user.repository.js</text>
</g>
<!-- database/repositories/index.js&#45;&gt;database/repositories/user.repository.js -->
<g id="edge21" class="edge">
<title>database/repositories/index.js&#45;&gt;database/repositories/user.repository.js</title>
<path fill="none" stroke="#757575" d="M911.75,-317.47C938.3,-326.06 976.15,-337.53 1010,-344.94 1021.37,-347.43 1033.35,-349.7 1045.29,-351.73"/>
<polygon fill="#757575" stroke="#757575" points="1044.86,-355.21 1055.3,-353.38 1046,-348.3 1044.86,-355.21"/>
</g>
<!-- database/models/group.model.js&#45;&gt;database/index.js -->
<g id="edge7" class="edge">
<title>database/models/group.model.js&#45;&gt;database/index.js</title>
<path fill="none" stroke="#757575" d="M1041.33,-192.04C967.68,-196.77 867.2,-204.16 779,-213.94 770.64,-214.87 761.88,-215.97 753.21,-217.13"/>
<polygon fill="#757575" stroke="#757575" points="752.52,-213.69 743.09,-218.53 753.47,-220.63 752.52,-213.69"/>
</g>
<!-- database/models/keystore.model.js&#45;&gt;database/index.js -->
<g id="edge11" class="edge">
<title>database/models/keystore.model.js&#45;&gt;database/index.js</title>
<path fill="none" stroke="#757575" d="M1104.37,-125.4C1033.58,-108.52 888.72,-83.83 779,-129.94 741.59,-145.66 711.45,-183.87 695.48,-207.66"/>
<polygon fill="#757575" stroke="#757575" points="692.39,-206 689.88,-216.29 698.26,-209.81 692.39,-206"/>
</g>
<!-- database/models/user.model.js&#45;&gt;database/index.js -->
<g id="edge12" class="edge">
<title>database/models/user.model.js&#45;&gt;database/index.js</title>
<path fill="none" stroke="#757575" d="M1085.14,-67.39C1008.39,-56.3 875.86,-48.01 779,-99.94 734.98,-123.54 705.44,-177.13 691.75,-206.94"/>
<polygon fill="#757575" stroke="#757575" points="688.41,-205.85 687.58,-216.41 694.82,-208.67 688.41,-205.85"/>
</g>
<!-- database/repositories/generic.repository.js&#45;&gt;core/index.js -->
<g id="edge13" class="edge">
<title>database/repositories/generic.repository.js&#45;&gt;core/index.js</title>
<path fill="none" stroke="#757575" d="M143.35,-294.25C179.36,-242.19 334.79,-33.94 517,-33.94 517,-33.94 517,-33.94 877.5,-33.94 1059.37,-33.94 1144.21,55.96 1286,-57.94 1328.14,-91.79 1355.55,-261.72 1364.12,-322.38"/>
<polygon fill="#757575" stroke="#757575" points="1360.67,-322.95 1365.5,-332.38 1367.6,-321.99 1360.67,-322.95"/>
</g>
<!-- helpers/index.js -->
<g id="node11" class="node">
<title>helpers/index.js</title>
<path fill="none" stroke="#ff6c60" d="M407.33,-357.44C407.33,-357.44 312.67,-357.44 312.67,-357.44 308.83,-357.44 305,-353.61 305,-349.77 305,-349.77 305,-342.11 305,-342.11 305,-338.27 308.83,-334.44 312.67,-334.44 312.67,-334.44 407.33,-334.44 407.33,-334.44 411.17,-334.44 415,-338.27 415,-342.11 415,-342.11 415,-349.77 415,-349.77 415,-353.61 411.17,-357.44 407.33,-357.44"/>
<text text-anchor="middle" x="360" y="-342.24" font-family="Arial" font-size="14.00" fill="#ff6c60">helpers/index.js</text>
</g>
<!-- database/repositories/generic.repository.js&#45;&gt;helpers/index.js -->
<g id="edge14" class="edge">
<title>database/repositories/generic.repository.js&#45;&gt;helpers/index.js</title>
<path fill="none" stroke="#757575" d="M199.85,-317.46C229.74,-322.81 265.18,-329.15 295.03,-334.49"/>
<polygon fill="#757575" stroke="#757575" points="294.46,-337.94 304.92,-336.26 295.69,-331.05 294.46,-337.94"/>
</g>
<!-- helpers/db.helper.js -->
<g id="node15" class="node">
<title>helpers/db.helper.js</title>
<path fill="none" stroke="#ff6c60" d="M577.33,-258.44C577.33,-258.44 458.67,-258.44 458.67,-258.44 454.83,-258.44 451,-254.61 451,-250.77 451,-250.77 451,-243.11 451,-243.11 451,-239.27 454.83,-235.44 458.67,-235.44 458.67,-235.44 577.33,-235.44 577.33,-235.44 581.17,-235.44 585,-239.27 585,-243.11 585,-243.11 585,-250.77 585,-250.77 585,-254.61 581.17,-258.44 577.33,-258.44"/>
<text text-anchor="middle" x="518" y="-243.24" font-family="Arial" font-size="14.00" fill="#ff6c60">helpers/db.helper.js</text>
</g>
<!-- helpers/index.js&#45;&gt;helpers/db.helper.js -->
<g id="edge29" class="edge">
<title>helpers/index.js&#45;&gt;helpers/db.helper.js</title>
<path fill="none" stroke="#757575" d="M379.2,-334.39C406.41,-317.12 457.89,-284.45 489.65,-264.3"/>
<polygon fill="#757575" stroke="#757575" points="491.86,-267.04 498.43,-258.72 488.11,-261.13 491.86,-267.04"/>
</g>
<!-- database/repositories/group.repository.js&#45;&gt;core/index.js -->
<g id="edge15" class="edge">
<title>database/repositories/group.repository.js&#45;&gt;core/index.js</title>
<path fill="none" stroke="#757575" d="M1274.55,-335.46C1287.45,-336.64 1300.03,-337.8 1311.55,-338.85"/>
<polygon fill="#757575" stroke="#757575" points="1311.53,-342.37 1321.81,-339.79 1312.17,-335.4 1311.53,-342.37"/>
</g>
<!-- database/repositories/group.repository.js&#45;&gt;database/index.js -->
<g id="edge16" class="edge">
<title>database/repositories/group.repository.js&#45;&gt;database/index.js</title>
<path fill="none" stroke="#757575" d="M1043.34,-312.41C1031.97,-310.08 1020.66,-307.29 1010,-303.94 992.93,-298.58 990.99,-291.54 974,-285.94 890.44,-258.42 865.06,-270.18 779,-251.94 765.07,-248.99 750.1,-245.43 736.22,-241.97"/>
<polygon fill="#757575" stroke="#757575" points="736.89,-238.53 726.33,-239.48 735.17,-245.32 736.89,-238.53"/>
</g>
<!-- database/repositories/group.repository.js&#45;&gt;helpers/index.js -->
<g id="edge17" class="edge">
<title>database/repositories/group.repository.js&#45;&gt;helpers/index.js</title>
<path fill="none" stroke="#757575" d="M1051.66,-335.5C1037.57,-338.09 1023.32,-341.2 1010,-344.94 993.31,-349.62 991,-356.54 974,-359.94 777.37,-399.27 538.21,-373.14 425.57,-356.59"/>
<polygon fill="#757575" stroke="#757575" points="425.81,-353.08 415.4,-355.07 424.77,-360.01 425.81,-353.08"/>
</g>
<!-- database/repositories/keystore.repository.js&#45;&gt;core/index.js -->
<g id="edge22" class="edge">
<title>database/repositories/keystore.repository.js&#45;&gt;core/index.js</title>
<path fill="none" stroke="#757575" d="M1248.24,-294.45C1261.08,-297.02 1273.95,-300.14 1286,-303.94 1304.33,-309.72 1323.68,-319.13 1338.86,-327.38"/>
<polygon fill="#757575" stroke="#757575" points="1337.3,-330.51 1347.74,-332.32 1340.7,-324.39 1337.3,-330.51"/>
</g>
<!-- database/repositories/keystore.repository.js&#45;&gt;database/index.js -->
<g id="edge23" class="edge">
<title>database/repositories/keystore.repository.js&#45;&gt;database/index.js</title>
<path fill="none" stroke="#757575" d="M1090.33,-271.38C1056.65,-264.87 1013.03,-257.03 974,-251.94 898.96,-242.14 812.48,-235.61 753.42,-231.87"/>
<polygon fill="#757575" stroke="#757575" points="753.29,-228.35 743.09,-231.22 752.85,-235.34 753.29,-228.35"/>
</g>
<!-- database/repositories/keystore.repository.js&#45;&gt;helpers/index.js -->
<g id="edge24" class="edge">
<title>database/repositories/keystore.repository.js&#45;&gt;helpers/index.js</title>
<path fill="none" stroke="#757575" d="M1041.86,-294.44C1030.94,-297 1020.13,-300.12 1010,-303.94 992.23,-310.63 992.14,-321.33 974,-326.94 873.24,-358.08 561.38,-352.4 425.45,-348.24"/>
<polygon fill="#757575" stroke="#757575" points="425.29,-344.74 415.19,-347.92 425.07,-351.73 425.29,-344.74"/>
</g>
<!-- database/repositories/user.repository.js&#45;&gt;core/index.js -->
<g id="edge25" class="edge">
<title>database/repositories/user.repository.js&#45;&gt;core/index.js</title>
<path fill="none" stroke="#757575" d="M1268.52,-353.43C1283.7,-351.96 1298.6,-350.53 1312.03,-349.24"/>
<polygon fill="#757575" stroke="#757575" points="1312.38,-352.72 1322,-348.28 1311.71,-345.75 1312.38,-352.72"/>
</g>
<!-- database/repositories/user.repository.js&#45;&gt;database/index.js -->
<g id="edge26" class="edge">
<title>database/repositories/user.repository.js&#45;&gt;database/index.js</title>
<path fill="none" stroke="#757575" d="M1022.33,-372.88C948.2,-372.66 854.26,-363.47 779,-326.94 742.49,-309.22 712.24,-271.57 695.97,-248.14"/>
<polygon fill="#757575" stroke="#757575" points="698.74,-245.98 690.25,-239.65 692.93,-249.89 698.74,-245.98"/>
</g>
<!-- database/repositories/user.repository.js&#45;&gt;helpers/index.js -->
<g id="edge27" class="edge">
<title>database/repositories/user.repository.js&#45;&gt;helpers/index.js</title>
<path fill="none" stroke="#757575" d="M1029.26,-376.46C1022.53,-379.1 1016.05,-382.23 1010,-385.94 986.65,-400.24 998.37,-423.46 974,-435.94 767.12,-541.91 665.75,-524.89 451,-435.94 417.06,-421.88 389.25,-388.13 373.91,-366.19"/>
<polygon fill="#757575" stroke="#757575" points="376.62,-363.93 368.13,-357.6 370.81,-367.85 376.62,-363.93"/>
</g>
<!-- helpers/db.helper.js&#45;&gt;database/index.js -->
<g id="edge28" class="edge">
<title>helpers/db.helper.js&#45;&gt;database/index.js</title>
<path fill="none" stroke="#757575" d="M585.36,-239.16C593.75,-238.17 602.35,-237.16 610.79,-236.17"/>
<polygon fill="#757575" stroke="#757575" points="611.46,-239.62 620.99,-234.98 610.65,-232.67 611.46,-239.62"/>
</g>
</g>
</svg>
