<?xml version="1.0" encoding="UTF-8" standalone="no"?>
<!DOCTYPE svg PUBLIC "-//W3C//DTD SVG 1.1//EN"
 "http://www.w3.org/Graphics/SVG/1.1/DTD/svg11.dtd">
<!-- Generated by graphviz version 2.43.0 (0)
 -->
<!-- Title: G Pages: 1 -->
<svg width="1825pt" height="270pt"
 viewBox="0.00 0.00 1825.20 270.16" xmlns="http://www.w3.org/2000/svg" xmlns:xlink="http://www.w3.org/1999/xlink">
<g id="graph0" class="graph" transform="scale(1 1) rotate(0) translate(21.6 248.56)">
<title>G</title>
<polygon fill="#111111" stroke="transparent" points="-21.6,21.6 -21.6,-248.56 1803.6,-248.56 1803.6,21.6 -21.6,21.6"/>
<!-- core/JWT.core.js -->
<g id="node1" class="node">
<title>core/JWT.core.js</title>
<path fill="none" stroke="#ff6c60" d="M1389.83,-226.96C1389.83,-226.96 1288.17,-226.96 1288.17,-226.96 1284.33,-226.96 1280.5,-223.13 1280.5,-219.29 1280.5,-219.29 1280.5,-211.63 1280.5,-211.63 1280.5,-207.79 1284.33,-203.96 1288.17,-203.96 1288.17,-203.96 1389.83,-203.96 1389.83,-203.96 1393.67,-203.96 1397.5,-207.79 1397.5,-211.63 1397.5,-211.63 1397.5,-219.29 1397.5,-219.29 1397.5,-223.13 1393.67,-226.96 1389.83,-226.96"/>
<text text-anchor="middle" x="1339" y="-211.76" font-family="Arial" font-size="14.00" fill="#ff6c60">core/JWT.core.js</text>
</g>
<!-- core/index.js -->
<g id="node2" class="node">
<title>core/index.js</title>
<path fill="none" stroke="#ff6c60" d="M1597.33,-166.96C1597.33,-166.96 1520.67,-166.96 1520.67,-166.96 1516.83,-166.96 1513,-163.13 1513,-159.29 1513,-159.29 1513,-151.63 1513,-151.63 1513,-147.79 1516.83,-143.96 1520.67,-143.96 1520.67,-143.96 1597.33,-143.96 1597.33,-143.96 1601.17,-143.96 1605,-147.79 1605,-151.63 1605,-151.63 1605,-159.29 1605,-159.29 1605,-163.13 1601.17,-166.96 1597.33,-166.96"/>
<text text-anchor="middle" x="1559" y="-151.76" font-family="Arial" font-size="14.00" fill="#ff6c60">core/index.js</text>
</g>
<!-- core/JWT.core.js&#45;&gt;core/index.js -->
<g id="edge1" class="edge">
<title>core/JWT.core.js&#45;&gt;core/index.js</title>
<path fill="none" stroke="#757575" d="M1373.41,-203.92C1401.44,-198.01 1442.34,-190.9 1477,-180.46 1486.21,-177.69 1495.8,-174.22 1505.03,-170.69"/>
<polygon fill="#757575" stroke="#757575" points="1506.42,-173.91 1514.47,-167.03 1503.89,-167.38 1506.42,-173.91"/>
</g>
<!-- core/index.js&#45;&gt;core/JWT.core.js -->
<g id="edge3" class="edge">
<title>core/index.js&#45;&gt;core/JWT.core.js</title>
<path fill="none" stroke="#757575" d="M1547,-166.98C1531.67,-177.4 1502.85,-190.68 1477,-198.46 1454.79,-205.15 1430.01,-210.47 1407.7,-214.05"/>
<polygon fill="#757575" stroke="#757575" points="1407,-210.61 1397.64,-215.56 1408.05,-217.53 1407,-210.61"/>
</g>
<!-- core/api&#45;error.core.js -->
<g id="node3" class="node">
<title>core/api&#45;error.core.js</title>
<path fill="none" stroke="#ff6c60" d="M1774.33,-166.96C1774.33,-166.96 1648.67,-166.96 1648.67,-166.96 1644.83,-166.96 1641,-163.13 1641,-159.29 1641,-159.29 1641,-151.63 1641,-151.63 1641,-147.79 1644.83,-143.96 1648.67,-143.96 1648.67,-143.96 1774.33,-143.96 1774.33,-143.96 1778.17,-143.96 1782,-147.79 1782,-151.63 1782,-151.63 1782,-159.29 1782,-159.29 1782,-163.13 1778.17,-166.96 1774.33,-166.96"/>
<text text-anchor="middle" x="1711.5" y="-151.76" font-family="Arial" font-size="14.00" fill="#ff6c60">core/api&#45;error.core.js</text>
</g>
<!-- core/index.js&#45;&gt;core/api&#45;error.core.js -->
<g id="edge4" class="edge">
<title>core/index.js&#45;&gt;core/api&#45;error.core.js</title>
<path fill="none" stroke="#757575" d="M1605.15,-149.22C1613.25,-148.93 1621.89,-148.77 1630.62,-148.72"/>
<polygon fill="#757575" stroke="#757575" points="1630.88,-152.22 1640.88,-148.73 1630.88,-145.22 1630.88,-152.22"/>
</g>
<!-- core/api&#45;error.core.js&#45;&gt;core/index.js -->
<g id="edge2" class="edge">
<title>core/api&#45;error.core.js&#45;&gt;core/index.js</title>
<path fill="none" stroke="#757575" d="M1640.88,-162.19C1632.25,-162.25 1623.52,-162.18 1615.15,-161.99"/>
<polygon fill="#757575" stroke="#757575" points="1615.25,-158.49 1605.15,-161.71 1615.05,-165.49 1615.25,-158.49"/>
</g>
<!-- database/index.js -->
<g id="node4" class="node">
<title>database/index.js</title>
<path fill="none" stroke="#ff6c60" d="M926.33,-70.96C926.33,-70.96 819.67,-70.96 819.67,-70.96 815.83,-70.96 812,-67.13 812,-63.29 812,-63.29 812,-55.63 812,-55.63 812,-51.79 815.83,-47.96 819.67,-47.96 819.67,-47.96 926.33,-47.96 926.33,-47.96 930.17,-47.96 934,-51.79 934,-55.63 934,-55.63 934,-63.29 934,-63.29 934,-67.13 930.17,-70.96 926.33,-70.96"/>
<text text-anchor="middle" x="873" y="-55.76" font-family="Arial" font-size="14.00" fill="#ff6c60">database/index.js</text>
</g>
<!-- database/repositories/index.js -->
<g id="node5" class="node">
<title>database/repositories/index.js</title>
<path fill="none" stroke="#ff6c60" d="M1157.33,-70.96C1157.33,-70.96 977.67,-70.96 977.67,-70.96 973.83,-70.96 970,-67.13 970,-63.29 970,-63.29 970,-55.63 970,-55.63 970,-51.79 973.83,-47.96 977.67,-47.96 977.67,-47.96 1157.33,-47.96 1157.33,-47.96 1161.17,-47.96 1165,-51.79 1165,-55.63 1165,-55.63 1165,-63.29 1165,-63.29 1165,-67.13 1161.17,-70.96 1157.33,-70.96"/>
<text text-anchor="middle" x="1067.5" y="-55.76" font-family="Arial" font-size="14.00" fill="#ff6c60">database/repositories/index.js</text>
</g>
<!-- database/index.js&#45;&gt;database/repositories/index.js -->
<g id="edge5" class="edge">
<title>database/index.js&#45;&gt;database/repositories/index.js</title>
<path fill="none" stroke="#757575" d="M934.12,-59.46C942.28,-59.46 950.86,-59.46 959.55,-59.46"/>
<polygon fill="#757575" stroke="#757575" points="959.79,-62.96 969.79,-59.46 959.79,-55.96 959.79,-62.96"/>
</g>
<!-- database/repositories/generic.repository.js -->
<g id="node9" class="node">
<title>database/repositories/generic.repository.js</title>
<path fill="none" stroke="#ff6c60" d="M261.33,-90.96C261.33,-90.96 7.67,-90.96 7.67,-90.96 3.83,-90.96 0,-87.13 0,-83.29 0,-83.29 0,-75.63 0,-75.63 0,-71.79 3.83,-67.96 7.67,-67.96 7.67,-67.96 261.33,-67.96 261.33,-67.96 265.17,-67.96 269,-71.79 269,-75.63 269,-75.63 269,-83.29 269,-83.29 269,-87.13 265.17,-90.96 261.33,-90.96"/>
<text text-anchor="middle" x="134.5" y="-75.76" font-family="Arial" font-size="14.00" fill="#ff6c60">database/repositories/generic.repository.js</text>
</g>
<!-- database/repositories/index.js&#45;&gt;database/repositories/generic.repository.js -->
<g id="edge15" class="edge">
<title>database/repositories/index.js&#45;&gt;database/repositories/generic.repository.js</title>
<path fill="none" stroke="#757575" d="M1006.71,-47.94C984.04,-44.11 957.92,-40.34 934,-38.46 655.17,-16.5 583.21,-29.69 305,-58.46 281.64,-60.88 256.52,-63.81 232.95,-66.7"/>
<polygon fill="#757575" stroke="#757575" points="232.45,-63.24 222.96,-67.94 233.31,-70.18 232.45,-63.24"/>
</g>
<!-- database/repositories/group.repository.js -->
<g id="node11" class="node">
<title>database/repositories/group.repository.js</title>
<path fill="none" stroke="#ff6c60" d="M1461.33,-64.96C1461.33,-64.96 1216.67,-64.96 1216.67,-64.96 1212.83,-64.96 1209,-61.13 1209,-57.29 1209,-57.29 1209,-49.63 1209,-49.63 1209,-45.79 1212.83,-41.96 1216.67,-41.96 1216.67,-41.96 1461.33,-41.96 1461.33,-41.96 1465.17,-41.96 1469,-45.79 1469,-49.63 1469,-49.63 1469,-57.29 1469,-57.29 1469,-61.13 1465.17,-64.96 1461.33,-64.96"/>
<text text-anchor="middle" x="1339" y="-49.76" font-family="Arial" font-size="14.00" fill="#ff6c60">database/repositories/group.repository.js</text>
</g>
<!-- database/repositories/index.js&#45;&gt;database/repositories/group.repository.js -->
<g id="edge16" class="edge">
<title>database/repositories/index.js&#45;&gt;database/repositories/group.repository.js</title>
<path fill="none" stroke="#757575" d="M1165.03,-50.81C1176.02,-50.42 1187.37,-50.09 1198.76,-49.81"/>
<polygon fill="#757575" stroke="#757575" points="1198.85,-53.31 1208.77,-49.59 1198.7,-46.32 1198.85,-53.31"/>
</g>
<!-- database/repositories/keystore.repository.js -->
<g id="node12" class="node">
<title>database/repositories/keystore.repository.js</title>
<path fill="none" stroke="#ff6c60" d="M1469.33,-146.96C1469.33,-146.96 1208.67,-146.96 1208.67,-146.96 1204.83,-146.96 1201,-143.13 1201,-139.29 1201,-139.29 1201,-131.63 1201,-131.63 1201,-127.79 1204.83,-123.96 1208.67,-123.96 1208.67,-123.96 1469.33,-123.96 1469.33,-123.96 1473.17,-123.96 1477,-127.79 1477,-131.63 1477,-131.63 1477,-139.29 1477,-139.29 1477,-143.13 1473.17,-146.96 1469.33,-146.96"/>
<text text-anchor="middle" x="1339" y="-131.76" font-family="Arial" font-size="14.00" fill="#ff6c60">database/repositories/keystore.repository.js</text>
</g>
<!-- database/repositories/index.js&#45;&gt;database/repositories/keystore.repository.js -->
<g id="edge17" class="edge">
<title>database/repositories/index.js&#45;&gt;database/repositories/keystore.repository.js</title>
<path fill="none" stroke="#757575" d="M1107.91,-71.07C1133.8,-81.71 1168.74,-96.44 1201,-105.46 1228.52,-113.16 1259.98,-118.23 1285.81,-122.36"/>
<polygon fill="#757575" stroke="#757575" points="1285.35,-125.83 1295.78,-123.96 1286.46,-118.92 1285.35,-125.83"/>
</g>
<!-- database/repositories/user.repository.js -->
<g id="node13" class="node">
<title>database/repositories/user.repository.js</title>
<path fill="none" stroke="#ff6c60" d="M1456.83,-105.96C1456.83,-105.96 1221.17,-105.96 1221.17,-105.96 1217.33,-105.96 1213.5,-102.13 1213.5,-98.29 1213.5,-98.29 1213.5,-90.63 1213.5,-90.63 1213.5,-86.79 1217.33,-82.96 1221.17,-82.96 1221.17,-82.96 1456.83,-82.96 1456.83,-82.96 1460.67,-82.96 1464.5,-86.79 1464.5,-90.63 1464.5,-90.63 1464.5,-98.29 1464.5,-98.29 1464.5,-102.13 1460.67,-105.96 1456.83,-105.96"/>
<text text-anchor="middle" x="1339" y="-90.76" font-family="Arial" font-size="14.00" fill="#ff6c60">database/repositories/user.repository.js</text>
</g>
<!-- database/repositories/index.js&#45;&gt;database/repositories/user.repository.js -->
<g id="edge18" class="edge">
<title>database/repositories/index.js&#45;&gt;database/repositories/user.repository.js</title>
<path fill="none" stroke="#757575" d="M1165.03,-65.5C1203.5,-69.98 1246.49,-75.84 1279.99,-81.26"/>
<polygon fill="#757575" stroke="#757575" points="1279.63,-84.75 1290.06,-82.93 1280.77,-77.84 1279.63,-84.75"/>
</g>
<!-- database/models/group.model.js -->
<g id="node6" class="node">
<title>database/models/group.model.js</title>
<path fill="none" stroke="#ff6c60" d="M233.33,-226.96C233.33,-226.96 35.67,-226.96 35.67,-226.96 31.83,-226.96 28,-223.13 28,-219.29 28,-219.29 28,-211.63 28,-211.63 28,-207.79 31.83,-203.96 35.67,-203.96 35.67,-203.96 233.33,-203.96 233.33,-203.96 237.17,-203.96 241,-207.79 241,-211.63 241,-211.63 241,-219.29 241,-219.29 241,-223.13 237.17,-226.96 233.33,-226.96"/>
<text text-anchor="middle" x="134.5" y="-211.76" font-family="Arial" font-size="14.00" fill="#ff6c60">database/models/group.model.js</text>
</g>
<!-- database/models/user.model.js -->
<g id="node7" class="node">
<title>database/models/user.model.js</title>
<path fill="none" stroke="#ff6c60" d="M502.33,-226.96C502.33,-226.96 312.67,-226.96 312.67,-226.96 308.83,-226.96 305,-223.13 305,-219.29 305,-219.29 305,-211.63 305,-211.63 305,-207.79 308.83,-203.96 312.67,-203.96 312.67,-203.96 502.33,-203.96 502.33,-203.96 506.17,-203.96 510,-207.79 510,-211.63 510,-211.63 510,-219.29 510,-219.29 510,-223.13 506.17,-226.96 502.33,-226.96"/>
<text text-anchor="middle" x="407.5" y="-211.76" font-family="Arial" font-size="14.00" fill="#ff6c60">database/models/user.model.js</text>
</g>
<!-- database/models/group.model.js&#45;&gt;database/models/user.model.js -->
<g id="edge6" class="edge">
<title>database/models/group.model.js&#45;&gt;database/models/user.model.js</title>
<path fill="none" stroke="#757575" d="M241.05,-208.86C258.57,-208.68 276.79,-208.66 294.46,-208.8"/>
<polygon fill="#757575" stroke="#757575" points="294.76,-212.3 304.79,-208.9 294.83,-205.31 294.76,-212.3"/>
</g>
<!-- database/models/user.model.js&#45;&gt;database/models/group.model.js -->
<g id="edge8" class="edge">
<title>database/models/user.model.js&#45;&gt;database/models/group.model.js</title>
<path fill="none" stroke="#757575" d="M304.79,-222.02C287.38,-222.22 269.18,-222.26 251.44,-222.15"/>
<polygon fill="#757575" stroke="#757575" points="251.08,-218.65 241.05,-222.06 251.02,-225.64 251.08,-218.65"/>
</g>
<!-- database/models/keystore.model.js -->
<g id="node8" class="node">
<title>database/models/keystore.model.js</title>
<path fill="none" stroke="#ff6c60" d="M768.33,-226.96C768.33,-226.96 553.67,-226.96 553.67,-226.96 549.83,-226.96 546,-223.13 546,-219.29 546,-219.29 546,-211.63 546,-211.63 546,-207.79 549.83,-203.96 553.67,-203.96 553.67,-203.96 768.33,-203.96 768.33,-203.96 772.17,-203.96 776,-207.79 776,-211.63 776,-211.63 776,-219.29 776,-219.29 776,-223.13 772.17,-226.96 768.33,-226.96"/>
<text text-anchor="middle" x="661" y="-211.76" font-family="Arial" font-size="14.00" fill="#ff6c60">database/models/keystore.model.js</text>
</g>
<!-- database/models/user.model.js&#45;&gt;database/models/keystore.model.js -->
<g id="edge9" class="edge">
<title>database/models/user.model.js&#45;&gt;database/models/keystore.model.js</title>
<path fill="none" stroke="#757575" d="M510.07,-208.82C518.5,-208.74 527.07,-208.71 535.64,-208.71"/>
<polygon fill="#757575" stroke="#757575" points="535.68,-212.21 545.69,-208.74 535.7,-205.21 535.68,-212.21"/>
</g>
<!-- database/models/keystore.model.js&#45;&gt;database/models/user.model.js -->
<g id="edge7" class="edge">
<title>database/models/keystore.model.js&#45;&gt;database/models/user.model.js</title>
<path fill="none" stroke="#757575" d="M545.69,-222.19C537.24,-222.22 528.73,-222.22 520.3,-222.17"/>
<polygon fill="#757575" stroke="#757575" points="520.1,-218.67 510.07,-222.1 520.04,-225.67 520.1,-218.67"/>
</g>
<!-- database/repositories/generic.repository.js&#45;&gt;core/index.js -->
<g id="edge10" class="edge">
<title>database/repositories/generic.repository.js&#45;&gt;core/index.js</title>
<path fill="none" stroke="#757575" d="M172.6,-91.04C257.79,-116.57 474.39,-175.46 660,-175.46 660,-175.46 660,-175.46 1068.5,-175.46 1226.15,-175.46 1412.13,-164.98 1502.76,-159.19"/>
<polygon fill="#757575" stroke="#757575" points="1503.06,-162.68 1512.81,-158.54 1502.61,-155.69 1503.06,-162.68"/>
</g>
<!-- helpers/index.js -->
<g id="node10" class="node">
<title>helpers/index.js</title>
<path fill="none" stroke="#ff6c60" d="M454.83,-90.96C454.83,-90.96 360.17,-90.96 360.17,-90.96 356.33,-90.96 352.5,-87.13 352.5,-83.29 352.5,-83.29 352.5,-75.63 352.5,-75.63 352.5,-71.79 356.33,-67.96 360.17,-67.96 360.17,-67.96 454.83,-67.96 454.83,-67.96 458.67,-67.96 462.5,-71.79 462.5,-75.63 462.5,-75.63 462.5,-83.29 462.5,-83.29 462.5,-87.13 458.67,-90.96 454.83,-90.96"/>
<text text-anchor="middle" x="407.5" y="-75.76" font-family="Arial" font-size="14.00" fill="#ff6c60">helpers/index.js</text>
</g>
<!-- database/repositories/generic.repository.js&#45;&gt;helpers/index.js -->
<g id="edge11" class="edge">
<title>database/repositories/generic.repository.js&#45;&gt;helpers/index.js</title>
<path fill="none" stroke="#757575" d="M269.02,-79.46C294.5,-79.46 320.09,-79.46 342.16,-79.46"/>
<polygon fill="#757575" stroke="#757575" points="342.36,-82.96 352.36,-79.46 342.36,-75.96 342.36,-82.96"/>
</g>
<!-- helpers/db.helper.js -->
<g id="node14" class="node">
<title>helpers/db.helper.js</title>
<path fill="none" stroke="#ff6c60" d="M720.33,-70.96C720.33,-70.96 601.67,-70.96 601.67,-70.96 597.83,-70.96 594,-67.13 594,-63.29 594,-63.29 594,-55.63 594,-55.63 594,-51.79 597.83,-47.96 601.67,-47.96 601.67,-47.96 720.33,-47.96 720.33,-47.96 724.17,-47.96 728,-51.79 728,-55.63 728,-55.63 728,-63.29 728,-63.29 728,-67.13 724.17,-70.96 720.33,-70.96"/>
<text text-anchor="middle" x="661" y="-55.76" font-family="Arial" font-size="14.00" fill="#ff6c60">helpers/db.helper.js</text>
</g>
<!-- helpers/index.js&#45;&gt;helpers/db.helper.js -->
<g id="edge26" class="edge">
<title>helpers/index.js&#45;&gt;helpers/db.helper.js</title>
<path fill="none" stroke="#757575" d="M462.76,-75.15C498.02,-72.34 544.51,-68.65 583.5,-65.54"/>
<polygon fill="#757575" stroke="#757575" points="584.07,-69.01 593.76,-64.73 583.51,-62.03 584.07,-69.01"/>
</g>
<!-- database/repositories/group.repository.js&#45;&gt;core/index.js -->
<g id="edge12" class="edge">
<title>database/repositories/group.repository.js&#45;&gt;core/index.js</title>
<path fill="none" stroke="#757575" d="M1456.4,-64.98C1463.53,-67.35 1470.46,-70.15 1477,-73.46 1505.65,-87.95 1530.2,-116.48 1544.54,-135.77"/>
<polygon fill="#757575" stroke="#757575" points="1541.71,-137.82 1550.39,-143.89 1547.39,-133.73 1541.71,-137.82"/>
</g>
<!-- database/repositories/group.repository.js&#45;&gt;database/repositories/index.js -->
<g id="edge13" class="edge">
<title>database/repositories/group.repository.js&#45;&gt;database/repositories/index.js</title>
<path fill="none" stroke="#757575" d="M1208.77,-63.08C1197.5,-63.35 1186.17,-63.56 1175.11,-63.71"/>
<polygon fill="#757575" stroke="#757575" points="1175,-60.21 1165.03,-63.81 1175.07,-67.21 1175,-60.21"/>
</g>
<!-- database/repositories/group.repository.js&#45;&gt;helpers/index.js -->
<g id="edge14" class="edge">
<title>database/repositories/group.repository.js&#45;&gt;helpers/index.js</title>
<path fill="none" stroke="#757575" d="M1221.3,-41.96C1202.49,-40.5 1183.22,-39.25 1165,-38.46 890.15,-26.57 809.31,41.26 546,-38.46 527.6,-44.03 527.88,-55.38 510,-62.46 498.27,-67.11 485.28,-70.48 472.63,-72.94"/>
<polygon fill="#757575" stroke="#757575" points="471.83,-69.52 462.59,-74.71 473.05,-76.42 471.83,-69.52"/>
</g>
<!-- database/repositories/keystore.repository.js&#45;&gt;core/index.js -->
<g id="edge19" class="edge">
<title>database/repositories/keystore.repository.js&#45;&gt;core/index.js</title>
<path fill="none" stroke="#757575" d="M1465.55,-146.98C1478.45,-148.16 1491.03,-149.32 1502.55,-150.37"/>
<polygon fill="#757575" stroke="#757575" points="1502.53,-153.89 1512.81,-151.32 1503.17,-146.92 1502.53,-153.89"/>
</g>
<!-- database/repositories/keystore.repository.js&#45;&gt;database/repositories/index.js -->
<g id="edge20" class="edge">
<title>database/repositories/keystore.repository.js&#45;&gt;database/repositories/index.js</title>
<path fill="none" stroke="#757575" d="M1202.74,-123.94C1202.16,-123.78 1201.58,-123.62 1201,-123.46 1160.2,-112.05 1115.12,-91.52 1089.46,-76.39"/>
<polygon fill="#757575" stroke="#757575" points="1091.27,-73.39 1080.93,-71.08 1087.57,-79.33 1091.27,-73.39"/>
</g>
<!-- database/repositories/keystore.repository.js&#45;&gt;helpers/index.js -->
<g id="edge21" class="edge">
<title>database/repositories/keystore.repository.js&#45;&gt;helpers/index.js</title>
<path fill="none" stroke="#757575" d="M1200.74,-132.82C1042.6,-128.9 775.07,-119.6 546,-98.46 521.96,-96.24 495.68,-92.85 472.59,-89.54"/>
<polygon fill="#757575" stroke="#757575" points="472.97,-86.06 462.57,-88.09 471.96,-92.99 472.97,-86.06"/>
</g>
<!-- database/repositories/user.repository.js&#45;&gt;core/index.js -->
<g id="edge22" class="edge">
<title>database/repositories/user.repository.js&#45;&gt;core/index.js</title>
<path fill="none" stroke="#757575" d="M1444.04,-106.02C1455.28,-108.34 1466.46,-111.12 1477,-114.46 1495.66,-120.37 1515.29,-130.2 1530.54,-138.75"/>
<polygon fill="#757575" stroke="#757575" points="1529.02,-141.91 1539.43,-143.87 1532.51,-135.85 1529.02,-141.91"/>
</g>
<!-- database/repositories/user.repository.js&#45;&gt;database/repositories/index.js -->
<g id="edge23" class="edge">
<title>database/repositories/user.repository.js&#45;&gt;database/repositories/index.js</title>
<path fill="none" stroke="#757575" d="M1213.34,-85.01C1182.91,-81.16 1151.8,-76.75 1126.24,-72.61"/>
<polygon fill="#757575" stroke="#757575" points="1126.81,-69.16 1116.37,-70.98 1125.67,-76.07 1126.81,-69.16"/>
</g>
<!-- database/repositories/user.repository.js&#45;&gt;helpers/index.js -->
<g id="edge24" class="edge">
<title>database/repositories/user.repository.js&#45;&gt;helpers/index.js</title>
<path fill="none" stroke="#757575" d="M1213.19,-92.45C1012.7,-89.21 625.93,-82.97 473,-80.5"/>
<polygon fill="#757575" stroke="#757575" points="472.89,-77 462.83,-80.34 472.77,-84 472.89,-77"/>
</g>
<!-- helpers/db.helper.js&#45;&gt;database/index.js -->
<g id="edge25" class="edge">
<title>helpers/db.helper.js&#45;&gt;database/index.js</title>
<path fill="none" stroke="#757575" d="M728.16,-59.46C751.62,-59.46 778.09,-59.46 801.87,-59.46"/>
<polygon fill="#757575" stroke="#757575" points="801.87,-62.96 811.87,-59.46 801.87,-55.96 801.87,-62.96"/>
</g>
</g>
</svg>
