<?xml version="1.0" encoding="UTF-8" standalone="no"?>
<!DOCTYPE svg PUBLIC "-//W3C//DTD SVG 1.1//EN"
 "http://www.w3.org/Graphics/SVG/1.1/DTD/svg11.dtd">
<!-- Generated by graphviz version 2.43.0 (0)
 -->
<!-- Title: G Pages: 1 -->
<svg width="1634pt" height="341pt"
 viewBox="0.00 0.00 1634.20 341.47" xmlns="http://www.w3.org/2000/svg" xmlns:xlink="http://www.w3.org/1999/xlink">
<g id="graph0" class="graph" transform="scale(1 1) rotate(0) translate(21.6 319.87)">
<title>G</title>
<polygon fill="#111111" stroke="transparent" points="-21.6,21.6 -21.6,-319.87 1612.6,-319.87 1612.6,21.6 -21.6,21.6"/>
<!-- core/JWT.core.js -->
<g id="node1" class="node">
<title>core/JWT.core.js</title>
<path fill="none" stroke="#ff6c60" d="M1198.83,-298.27C1198.83,-298.27 1097.17,-298.27 1097.17,-298.27 1093.33,-298.27 1089.5,-294.44 1089.5,-290.61 1089.5,-290.61 1089.5,-282.94 1089.5,-282.94 1089.5,-279.11 1093.33,-275.27 1097.17,-275.27 1097.17,-275.27 1198.83,-275.27 1198.83,-275.27 1202.67,-275.27 1206.5,-279.11 1206.5,-282.94 1206.5,-282.94 1206.5,-290.61 1206.5,-290.61 1206.5,-294.44 1202.67,-298.27 1198.83,-298.27"/>
<text text-anchor="middle" x="1148" y="-283.07" font-family="Arial" font-size="14.00" fill="#ff6c60">core/JWT.core.js</text>
</g>
<!-- core/index.js -->
<g id="node2" class="node">
<title>core/index.js</title>
<path fill="none" stroke="#ff6c60" d="M1406.33,-203.27C1406.33,-203.27 1329.67,-203.27 1329.67,-203.27 1325.83,-203.27 1322,-199.44 1322,-195.61 1322,-195.61 1322,-187.94 1322,-187.94 1322,-184.11 1325.83,-180.27 1329.67,-180.27 1329.67,-180.27 1406.33,-180.27 1406.33,-180.27 1410.17,-180.27 1414,-184.11 1414,-187.94 1414,-187.94 1414,-195.61 1414,-195.61 1414,-199.44 1410.17,-203.27 1406.33,-203.27"/>
<text text-anchor="middle" x="1368" y="-188.07" font-family="Arial" font-size="14.00" fill="#ff6c60">core/index.js</text>
</g>
<!-- core/JWT.core.js&#45;&gt;core/index.js -->
<g id="edge1" class="edge">
<title>core/JWT.core.js&#45;&gt;core/index.js</title>
<path fill="none" stroke="#757575" d="M1200.74,-275.27C1227.26,-270.98 1259.47,-264.48 1286,-251.77 1307.51,-241.48 1327.92,-224.02 1342.88,-210.39"/>
<polygon fill="#757575" stroke="#757575" points="1345.61,-212.64 1350.59,-203.29 1340.87,-207.49 1345.61,-212.64"/>
</g>
<!-- core/index.js&#45;&gt;core/JWT.core.js -->
<g id="edge3" class="edge">
<title>core/index.js&#45;&gt;core/JWT.core.js</title>
<path fill="none" stroke="#757575" d="M1361.31,-203.47C1349.1,-221.67 1318.82,-254.06 1286,-269.77 1264.6,-280.02 1239.51,-286.23 1216.69,-289.49"/>
<polygon fill="#757575" stroke="#757575" points="1216.21,-286.02 1206.73,-290.75 1217.09,-292.97 1216.21,-286.02"/>
</g>
<!-- core/api&#45;error.core.js -->
<g id="node3" class="node">
<title>core/api&#45;error.core.js</title>
<path fill="none" stroke="#ff6c60" d="M1583.33,-203.27C1583.33,-203.27 1457.67,-203.27 1457.67,-203.27 1453.83,-203.27 1450,-199.44 1450,-195.61 1450,-195.61 1450,-187.94 1450,-187.94 1450,-184.11 1453.83,-180.27 1457.67,-180.27 1457.67,-180.27 1583.33,-180.27 1583.33,-180.27 1587.17,-180.27 1591,-184.11 1591,-187.94 1591,-187.94 1591,-195.61 1591,-195.61 1591,-199.44 1587.17,-203.27 1583.33,-203.27"/>
<text text-anchor="middle" x="1520.5" y="-188.07" font-family="Arial" font-size="14.00" fill="#ff6c60">core/api&#45;error.core.js</text>
</g>
<!-- core/index.js&#45;&gt;core/api&#45;error.core.js -->
<g id="edge4" class="edge">
<title>core/index.js&#45;&gt;core/api&#45;error.core.js</title>
<path fill="none" stroke="#757575" d="M1414.15,-185.53C1422.25,-185.24 1430.89,-185.08 1439.62,-185.04"/>
<polygon fill="#757575" stroke="#757575" points="1439.88,-188.54 1449.88,-185.04 1439.88,-181.54 1439.88,-188.54"/>
</g>
<!-- core/api&#45;error.core.js&#45;&gt;core/index.js -->
<g id="edge2" class="edge">
<title>core/api&#45;error.core.js&#45;&gt;core/index.js</title>
<path fill="none" stroke="#757575" d="M1449.88,-198.51C1441.25,-198.56 1432.52,-198.49 1424.15,-198.31"/>
<polygon fill="#757575" stroke="#757575" points="1424.25,-194.81 1414.15,-198.02 1424.05,-201.8 1424.25,-194.81"/>
</g>
<!-- database/index.js -->
<g id="node4" class="node">
<title>database/index.js</title>
<path fill="none" stroke="#ff6c60" d="M735.33,-106.27C735.33,-106.27 628.67,-106.27 628.67,-106.27 624.83,-106.27 621,-102.44 621,-98.61 621,-98.61 621,-90.94 621,-90.94 621,-87.11 624.83,-83.27 628.67,-83.27 628.67,-83.27 735.33,-83.27 735.33,-83.27 739.17,-83.27 743,-87.11 743,-90.94 743,-90.94 743,-98.61 743,-98.61 743,-102.44 739.17,-106.27 735.33,-106.27"/>
<text text-anchor="middle" x="682" y="-91.07" font-family="Arial" font-size="14.00" fill="#ff6c60">database/index.js</text>
</g>
<!-- database/repositories/index.js -->
<g id="node5" class="node">
<title>database/repositories/index.js</title>
<path fill="none" stroke="#ff6c60" d="M966.33,-66.27C966.33,-66.27 786.67,-66.27 786.67,-66.27 782.83,-66.27 779,-62.44 779,-58.61 779,-58.61 779,-50.94 779,-50.94 779,-47.11 782.83,-43.27 786.67,-43.27 786.67,-43.27 966.33,-43.27 966.33,-43.27 970.17,-43.27 974,-47.11 974,-50.94 974,-50.94 974,-58.61 974,-58.61 974,-62.44 970.17,-66.27 966.33,-66.27"/>
<text text-anchor="middle" x="876.5" y="-51.07" font-family="Arial" font-size="14.00" fill="#ff6c60">database/repositories/index.js</text>
</g>
<!-- database/index.js&#45;&gt;database/repositories/index.js -->
<g id="edge5" class="edge">
<title>database/index.js&#45;&gt;database/repositories/index.js</title>
<path fill="none" stroke="#757575" d="M738.42,-83.26C760.87,-78.59 786.96,-73.17 810.31,-68.32"/>
<polygon fill="#757575" stroke="#757575" points="811.06,-71.74 820.14,-66.28 809.63,-64.89 811.06,-71.74"/>
</g>
<!-- database/repositories/generic.repository.js -->
<g id="node6" class="node">
<title>database/repositories/generic.repository.js</title>
<path fill="none" stroke="#ff6c60" d="M261.33,-162.27C261.33,-162.27 7.67,-162.27 7.67,-162.27 3.83,-162.27 0,-158.44 0,-154.61 0,-154.61 0,-146.94 0,-146.94 0,-143.11 3.83,-139.27 7.67,-139.27 7.67,-139.27 261.33,-139.27 261.33,-139.27 265.17,-139.27 269,-143.11 269,-146.94 269,-146.94 269,-154.61 269,-154.61 269,-158.44 265.17,-162.27 261.33,-162.27"/>
<text text-anchor="middle" x="134.5" y="-147.07" font-family="Arial" font-size="14.00" fill="#ff6c60">database/repositories/generic.repository.js</text>
</g>
<!-- database/repositories/index.js&#45;&gt;database/repositories/generic.repository.js -->
<g id="edge11" class="edge">
<title>database/repositories/index.js&#45;&gt;database/repositories/generic.repository.js</title>
<path fill="none" stroke="#757575" d="M778.76,-61.29C731.21,-64.67 673.07,-69.07 621,-73.77 545.33,-80.6 526.18,-80.78 451,-91.77 363.6,-104.55 263.46,-124.13 199.88,-137.18"/>
<polygon fill="#757575" stroke="#757575" points="199.08,-133.77 190,-139.22 200.5,-140.63 199.08,-133.77"/>
</g>
<!-- database/repositories/group.repository.js -->
<g id="node8" class="node">
<title>database/repositories/group.repository.js</title>
<path fill="none" stroke="#ff6c60" d="M1270.33,-116.27C1270.33,-116.27 1025.67,-116.27 1025.67,-116.27 1021.83,-116.27 1018,-112.44 1018,-108.61 1018,-108.61 1018,-100.94 1018,-100.94 1018,-97.11 1021.83,-93.27 1025.67,-93.27 1025.67,-93.27 1270.33,-93.27 1270.33,-93.27 1274.17,-93.27 1278,-97.11 1278,-100.94 1278,-100.94 1278,-108.61 1278,-108.61 1278,-112.44 1274.17,-116.27 1270.33,-116.27"/>
<text text-anchor="middle" x="1148" y="-101.07" font-family="Arial" font-size="14.00" fill="#ff6c60">database/repositories/group.repository.js</text>
</g>
<!-- database/repositories/index.js&#45;&gt;database/repositories/group.repository.js -->
<g id="edge12" class="edge">
<title>database/repositories/index.js&#45;&gt;database/repositories/group.repository.js</title>
<path fill="none" stroke="#757575" d="M939.67,-66.31C979.96,-73.78 1032.6,-83.55 1074.75,-91.37"/>
<polygon fill="#757575" stroke="#757575" points="1074.21,-94.83 1084.68,-93.21 1075.49,-87.95 1074.21,-94.83"/>
</g>
<!-- database/repositories/keystore.repository.js -->
<g id="node9" class="node">
<title>database/repositories/keystore.repository.js</title>
<path fill="none" stroke="#ff6c60" d="M1278.33,-183.27C1278.33,-183.27 1017.67,-183.27 1017.67,-183.27 1013.83,-183.27 1010,-179.44 1010,-175.61 1010,-175.61 1010,-167.94 1010,-167.94 1010,-164.11 1013.83,-160.27 1017.67,-160.27 1017.67,-160.27 1278.33,-160.27 1278.33,-160.27 1282.17,-160.27 1286,-164.11 1286,-167.94 1286,-167.94 1286,-175.61 1286,-175.61 1286,-179.44 1282.17,-183.27 1278.33,-183.27"/>
<text text-anchor="middle" x="1148" y="-168.07" font-family="Arial" font-size="14.00" fill="#ff6c60">database/repositories/keystore.repository.js</text>
</g>
<!-- database/repositories/index.js&#45;&gt;database/repositories/keystore.repository.js -->
<g id="edge13" class="edge">
<title>database/repositories/index.js&#45;&gt;database/repositories/keystore.repository.js</title>
<path fill="none" stroke="#757575" d="M897.23,-66.44C922.7,-81.22 968.69,-106.91 1010,-124.77 1038.75,-137.21 1071.97,-148.67 1098.49,-157.17"/>
<polygon fill="#757575" stroke="#757575" points="1097.71,-160.59 1108.3,-160.27 1099.83,-153.92 1097.71,-160.59"/>
</g>
<!-- database/repositories/user.repository.js -->
<g id="node10" class="node">
<title>database/repositories/user.repository.js</title>
<path fill="none" stroke="#ff6c60" d="M1265.83,-56.27C1265.83,-56.27 1030.17,-56.27 1030.17,-56.27 1026.33,-56.27 1022.5,-52.44 1022.5,-48.61 1022.5,-48.61 1022.5,-40.94 1022.5,-40.94 1022.5,-37.11 1026.33,-33.27 1030.17,-33.27 1030.17,-33.27 1265.83,-33.27 1265.83,-33.27 1269.67,-33.27 1273.5,-37.11 1273.5,-40.94 1273.5,-40.94 1273.5,-48.61 1273.5,-48.61 1273.5,-52.44 1269.67,-56.27 1265.83,-56.27"/>
<text text-anchor="middle" x="1148" y="-41.07" font-family="Arial" font-size="14.00" fill="#ff6c60">database/repositories/user.repository.js</text>
</g>
<!-- database/repositories/index.js&#45;&gt;database/repositories/user.repository.js -->
<g id="edge14" class="edge">
<title>database/repositories/index.js&#45;&gt;database/repositories/user.repository.js</title>
<path fill="none" stroke="#757575" d="M974.03,-51.19C986.43,-50.73 999.29,-50.25 1012.16,-49.78"/>
<polygon fill="#757575" stroke="#757575" points="1012.61,-53.26 1022.47,-49.39 1012.35,-46.27 1012.61,-53.26"/>
</g>
<!-- database/repositories/generic.repository.js&#45;&gt;core/index.js -->
<g id="edge6" class="edge">
<title>database/repositories/generic.repository.js&#45;&gt;core/index.js</title>
<path fill="none" stroke="#757575" d="M162.21,-162.35C223.61,-187.89 380.06,-246.77 517,-246.77 517,-246.77 517,-246.77 877.5,-246.77 1036.01,-246.77 1221.6,-217.94 1311.96,-202.03"/>
<polygon fill="#757575" stroke="#757575" points="1312.74,-205.44 1321.97,-200.25 1311.52,-198.55 1312.74,-205.44"/>
</g>
<!-- helpers/index.js -->
<g id="node7" class="node">
<title>helpers/index.js</title>
<path fill="none" stroke="#ff6c60" d="M407.33,-162.27C407.33,-162.27 312.67,-162.27 312.67,-162.27 308.83,-162.27 305,-158.44 305,-154.61 305,-154.61 305,-146.94 305,-146.94 305,-143.11 308.83,-139.27 312.67,-139.27 312.67,-139.27 407.33,-139.27 407.33,-139.27 411.17,-139.27 415,-143.11 415,-146.94 415,-146.94 415,-154.61 415,-154.61 415,-158.44 411.17,-162.27 407.33,-162.27"/>
<text text-anchor="middle" x="360" y="-147.07" font-family="Arial" font-size="14.00" fill="#ff6c60">helpers/index.js</text>
</g>
<!-- database/repositories/generic.repository.js&#45;&gt;helpers/index.js -->
<g id="edge7" class="edge">
<title>database/repositories/generic.repository.js&#45;&gt;helpers/index.js</title>
<path fill="none" stroke="#757575" d="M269.06,-150.77C277.84,-150.77 286.44,-150.77 294.62,-150.77"/>
<polygon fill="#757575" stroke="#757575" points="294.74,-154.27 304.74,-150.77 294.74,-147.27 294.74,-154.27"/>
</g>
<!-- helpers/db.helper.js -->
<g id="node11" class="node">
<title>helpers/db.helper.js</title>
<path fill="none" stroke="#ff6c60" d="M577.33,-124.27C577.33,-124.27 458.67,-124.27 458.67,-124.27 454.83,-124.27 451,-120.44 451,-116.61 451,-116.61 451,-108.94 451,-108.94 451,-105.11 454.83,-101.27 458.67,-101.27 458.67,-101.27 577.33,-101.27 577.33,-101.27 581.17,-101.27 585,-105.11 585,-108.94 585,-108.94 585,-116.61 585,-116.61 585,-120.44 581.17,-124.27 577.33,-124.27"/>
<text text-anchor="middle" x="518" y="-109.07" font-family="Arial" font-size="14.00" fill="#ff6c60">helpers/db.helper.js</text>
</g>
<!-- helpers/index.js&#45;&gt;helpers/db.helper.js -->
<g id="edge22" class="edge">
<title>helpers/index.js&#45;&gt;helpers/db.helper.js</title>
<path fill="none" stroke="#757575" d="M408.23,-139.27C424.5,-135.31 442.89,-130.83 459.86,-126.69"/>
<polygon fill="#757575" stroke="#757575" points="460.78,-130.07 469.66,-124.3 459.12,-123.27 460.78,-130.07"/>
</g>
<!-- database/repositories/group.repository.js&#45;&gt;core/index.js -->
<g id="edge8" class="edge">
<title>database/repositories/group.repository.js&#45;&gt;core/index.js</title>
<path fill="none" stroke="#757575" d="M1186.99,-116.36C1214.76,-125.18 1253.15,-138.1 1286,-151.77 1302.87,-158.8 1321.15,-167.71 1336.08,-175.34"/>
<polygon fill="#757575" stroke="#757575" points="1334.86,-178.65 1345.35,-180.14 1338.07,-172.43 1334.86,-178.65"/>
</g>
<!-- database/repositories/group.repository.js&#45;&gt;database/index.js -->
<g id="edge9" class="edge">
<title>database/repositories/group.repository.js&#45;&gt;database/index.js</title>
<path fill="none" stroke="#757575" d="M1017.61,-101.99C932.02,-100.14 823.1,-97.79 753.21,-96.29"/>
<polygon fill="#757575" stroke="#757575" points="753.26,-92.79 743.18,-96.07 753.11,-99.79 753.26,-92.79"/>
</g>
<!-- database/repositories/group.repository.js&#45;&gt;helpers/index.js -->
<g id="edge10" class="edge">
<title>database/repositories/group.repository.js&#45;&gt;helpers/index.js</title>
<path fill="none" stroke="#757575" d="M1017.83,-112.33C847.47,-122.3 554.21,-139.47 425.14,-147.02"/>
<polygon fill="#757575" stroke="#757575" points="424.8,-143.53 415.02,-147.61 425.21,-150.52 424.8,-143.53"/>
</g>
<!-- database/repositories/keystore.repository.js&#45;&gt;core/index.js -->
<g id="edge15" class="edge">
<title>database/repositories/keystore.repository.js&#45;&gt;core/index.js</title>
<path fill="none" stroke="#757575" d="M1274.55,-183.29C1287.45,-184.48 1300.03,-185.63 1311.55,-186.69"/>
<polygon fill="#757575" stroke="#757575" points="1311.53,-190.2 1321.81,-187.63 1312.17,-183.23 1311.53,-190.2"/>
</g>
<!-- database/repositories/keystore.repository.js&#45;&gt;database/index.js -->
<g id="edge16" class="edge">
<title>database/repositories/keystore.repository.js&#45;&gt;database/index.js</title>
<path fill="none" stroke="#757575" d="M1068.25,-160.27C993.63,-149.16 878.5,-131.45 779,-113.77 769.34,-112.06 759.15,-110.15 749.17,-108.22"/>
<polygon fill="#757575" stroke="#757575" points="749.76,-104.77 739.28,-106.29 748.42,-111.64 749.76,-104.77"/>
</g>
<!-- database/repositories/keystore.repository.js&#45;&gt;helpers/index.js -->
<g id="edge17" class="edge">
<title>database/repositories/keystore.repository.js&#45;&gt;helpers/index.js</title>
<path fill="none" stroke="#757575" d="M1009.66,-183.04C997.6,-183.74 985.59,-184.34 974,-184.77 741.72,-193.49 679.66,-226.53 451,-184.77 431.36,-181.19 410.44,-173.54 393.71,-166.4"/>
<polygon fill="#757575" stroke="#757575" points="394.95,-163.12 384.39,-162.29 392.13,-169.53 394.95,-163.12"/>
</g>
<!-- database/repositories/user.repository.js&#45;&gt;core/index.js -->
<g id="edge18" class="edge">
<title>database/repositories/user.repository.js&#45;&gt;core/index.js</title>
<path fill="none" stroke="#757575" d="M1222.2,-56.32C1244.04,-62.13 1267.15,-70.81 1286,-83.77 1318.76,-106.3 1343.67,-146.39 1356.75,-170.88"/>
<polygon fill="#757575" stroke="#757575" points="1353.77,-172.75 1361.47,-180.03 1359.99,-169.54 1353.77,-172.75"/>
</g>
<!-- database/repositories/user.repository.js&#45;&gt;database/index.js -->
<g id="edge19" class="edge">
<title>database/repositories/user.repository.js&#45;&gt;database/index.js</title>
<path fill="none" stroke="#757575" d="M1094.53,-33.25C1021.97,-19.53 887.63,-2.18 779,-33.77 750.48,-42.07 722.34,-61.67 703.97,-76.43"/>
<polygon fill="#757575" stroke="#757575" points="701.25,-74.14 695.78,-83.22 705.72,-79.53 701.25,-74.14"/>
</g>
<!-- database/repositories/user.repository.js&#45;&gt;helpers/index.js -->
<g id="edge20" class="edge">
<title>database/repositories/user.repository.js&#45;&gt;helpers/index.js</title>
<path fill="none" stroke="#757575" d="M1098.12,-33.26C1063.65,-25.75 1016.28,-16.65 974,-12.77 739.9,8.69 661.06,13.76 451,-91.77 432.39,-101.12 432.26,-110.12 415,-121.77 408.36,-126.25 400.97,-130.6 393.82,-134.52"/>
<polygon fill="#757575" stroke="#757575" points="392.18,-131.43 384.99,-139.21 395.47,-137.61 392.18,-131.43"/>
</g>
<!-- helpers/db.helper.js&#45;&gt;database/index.js -->
<g id="edge21" class="edge">
<title>helpers/db.helper.js&#45;&gt;database/index.js</title>
<path fill="none" stroke="#757575" d="M585.36,-105.4C593.75,-104.47 602.35,-103.51 610.79,-102.57"/>
<polygon fill="#757575" stroke="#757575" points="611.44,-106.02 620.99,-101.44 610.66,-99.07 611.44,-106.02"/>
</g>
</g>
</svg>
